G75*
%MOIN*%
%OFA0B0*%
%FSLAX25Y25*%
%IPPOS*%
%LPD*%
%AMOC8*
5,1,8,0,0,1.08239X$1,22.5*
%
%ADD10C,0.01000*%
%ADD11C,0.06000*%
%ADD12R,0.06000X0.06000*%
%ADD13C,0.07400*%
%ADD14OC8,0.07400*%
%ADD15C,0.02400*%
%ADD16C,0.01600*%
D10*
X0024114Y0014431D02*
X0024114Y0194719D01*
X0027114Y0194478D02*
X0027161Y0194703D01*
X0029142Y0196683D01*
X0029556Y0196805D01*
X0029766Y0196802D01*
X0029816Y0196781D01*
X0030250Y0196781D01*
X0030682Y0196735D01*
X0030842Y0196781D01*
X0049452Y0196781D01*
X0049452Y0195994D01*
X0045452Y0195994D01*
X0045452Y0193297D01*
X0045555Y0192915D01*
X0045752Y0192573D01*
X0046031Y0192294D01*
X0046373Y0192096D01*
X0046755Y0191994D01*
X0049452Y0191994D01*
X0049452Y0195994D01*
X0050452Y0195994D01*
X0050452Y0191994D01*
X0053150Y0191994D01*
X0053531Y0192096D01*
X0053873Y0192294D01*
X0054153Y0192573D01*
X0054350Y0192915D01*
X0054452Y0193297D01*
X0054452Y0195994D01*
X0050453Y0195994D01*
X0050453Y0196781D01*
X0055452Y0196781D01*
X0055452Y0195599D01*
X0056138Y0193945D01*
X0057403Y0192679D01*
X0059057Y0191994D01*
X0060848Y0191994D01*
X0061097Y0192097D01*
X0066152Y0187041D01*
X0066152Y0124447D01*
X0066000Y0124294D01*
X0063912Y0124294D01*
X0064452Y0125599D01*
X0064452Y0127389D01*
X0063767Y0129043D01*
X0062502Y0130309D01*
X0060848Y0130994D01*
X0059057Y0130994D01*
X0057403Y0130309D01*
X0056138Y0129043D01*
X0055452Y0127389D01*
X0055452Y0125599D01*
X0055993Y0124294D01*
X0053912Y0124294D01*
X0054452Y0125599D01*
X0054452Y0127389D01*
X0053767Y0129043D01*
X0052502Y0130309D01*
X0050848Y0130994D01*
X0049057Y0130994D01*
X0047403Y0130309D01*
X0046138Y0129043D01*
X0045452Y0127389D01*
X0045452Y0125599D01*
X0045993Y0124294D01*
X0041000Y0124294D01*
X0039652Y0122947D01*
X0032152Y0115447D01*
X0032152Y0111724D01*
X0031900Y0112219D01*
X0031419Y0112882D01*
X0030840Y0113460D01*
X0030178Y0113942D01*
X0029449Y0114313D01*
X0028935Y0114480D01*
X0030398Y0115086D01*
X0031861Y0116549D01*
X0032652Y0118460D01*
X0032652Y0120528D01*
X0031861Y0122440D01*
X0030398Y0123902D01*
X0028970Y0124494D01*
X0030398Y0125086D01*
X0031861Y0126549D01*
X0032252Y0127494D01*
X0035281Y0127494D01*
X0038781Y0130994D01*
X0039952Y0132166D01*
X0039952Y0163666D01*
X0048508Y0172222D01*
X0049057Y0171994D01*
X0050848Y0171994D01*
X0052502Y0172679D01*
X0053767Y0173945D01*
X0054452Y0175599D01*
X0054452Y0177389D01*
X0053767Y0179043D01*
X0052502Y0180309D01*
X0050848Y0180994D01*
X0049057Y0180994D01*
X0047403Y0180309D01*
X0046138Y0179043D01*
X0045452Y0177389D01*
X0045452Y0175599D01*
X0045680Y0175050D01*
X0035952Y0165323D01*
X0035952Y0133823D01*
X0033624Y0131494D01*
X0032252Y0131494D01*
X0031861Y0132440D01*
X0030398Y0133902D01*
X0028970Y0134494D01*
X0030398Y0135086D01*
X0031861Y0136549D01*
X0032652Y0138460D01*
X0032652Y0140528D01*
X0031861Y0142440D01*
X0030398Y0143902D01*
X0028970Y0144494D01*
X0030398Y0145086D01*
X0031861Y0146549D01*
X0032652Y0148460D01*
X0032652Y0150528D01*
X0031861Y0152440D01*
X0030398Y0153902D01*
X0028970Y0154494D01*
X0030398Y0155086D01*
X0031861Y0156549D01*
X0032652Y0158460D01*
X0032652Y0160528D01*
X0031861Y0162440D01*
X0030398Y0163902D01*
X0028487Y0164694D01*
X0027114Y0164694D01*
X0027114Y0194478D01*
X0027114Y0193966D02*
X0045452Y0193966D01*
X0045452Y0194964D02*
X0027423Y0194964D01*
X0028421Y0195963D02*
X0045452Y0195963D01*
X0045541Y0192967D02*
X0027114Y0192967D01*
X0027114Y0191969D02*
X0061225Y0191969D01*
X0061006Y0190883D02*
X0060452Y0190971D01*
X0060452Y0186994D01*
X0059452Y0186994D01*
X0059452Y0185994D01*
X0055476Y0185994D01*
X0055563Y0185440D01*
X0055782Y0184767D01*
X0056104Y0184136D01*
X0056520Y0183563D01*
X0057021Y0183062D01*
X0057594Y0182645D01*
X0058225Y0182324D01*
X0058899Y0182105D01*
X0059452Y0182017D01*
X0059452Y0185994D01*
X0060452Y0185994D01*
X0060452Y0182017D01*
X0061006Y0182105D01*
X0061680Y0182324D01*
X0062311Y0182645D01*
X0062884Y0183062D01*
X0063385Y0183563D01*
X0063801Y0184136D01*
X0064123Y0184767D01*
X0064342Y0185440D01*
X0064429Y0185994D01*
X0060453Y0185994D01*
X0060453Y0186994D01*
X0064429Y0186994D01*
X0064342Y0187548D01*
X0064123Y0188221D01*
X0063801Y0188853D01*
X0063385Y0189426D01*
X0062884Y0189926D01*
X0062311Y0190343D01*
X0061680Y0190664D01*
X0061006Y0190883D01*
X0060458Y0190970D02*
X0062224Y0190970D01*
X0062822Y0189972D02*
X0063222Y0189972D01*
X0063714Y0188973D02*
X0064221Y0188973D01*
X0064203Y0187975D02*
X0065219Y0187975D01*
X0066152Y0186976D02*
X0060453Y0186976D01*
X0060452Y0185978D02*
X0059452Y0185978D01*
X0059452Y0186976D02*
X0054452Y0186976D01*
X0054452Y0187389D02*
X0053767Y0189043D01*
X0052502Y0190309D01*
X0050848Y0190994D01*
X0049057Y0190994D01*
X0047403Y0190309D01*
X0046138Y0189043D01*
X0045452Y0187389D01*
X0045452Y0185599D01*
X0046138Y0183945D01*
X0047403Y0182679D01*
X0049057Y0181994D01*
X0050848Y0181994D01*
X0052502Y0182679D01*
X0053767Y0183945D01*
X0054452Y0185599D01*
X0054452Y0187389D01*
X0054210Y0187975D02*
X0055702Y0187975D01*
X0055782Y0188221D02*
X0055563Y0187548D01*
X0055476Y0186994D01*
X0059452Y0186994D01*
X0059452Y0190971D01*
X0058899Y0190883D01*
X0058225Y0190664D01*
X0057594Y0190343D01*
X0057021Y0189926D01*
X0056520Y0189426D01*
X0056104Y0188853D01*
X0055782Y0188221D01*
X0056191Y0188973D02*
X0053796Y0188973D01*
X0052839Y0189972D02*
X0057083Y0189972D01*
X0059452Y0189972D02*
X0060452Y0189972D01*
X0060452Y0190970D02*
X0059452Y0190970D01*
X0059447Y0190970D02*
X0050905Y0190970D01*
X0049000Y0190970D02*
X0027114Y0190970D01*
X0027114Y0189972D02*
X0047066Y0189972D01*
X0046109Y0188973D02*
X0027114Y0188973D01*
X0027114Y0187975D02*
X0045695Y0187975D01*
X0045452Y0186976D02*
X0027114Y0186976D01*
X0027114Y0185978D02*
X0045452Y0185978D01*
X0045709Y0184979D02*
X0027114Y0184979D01*
X0027114Y0183981D02*
X0046123Y0183981D01*
X0047101Y0182982D02*
X0027114Y0182982D01*
X0027114Y0181984D02*
X0066152Y0181984D01*
X0066152Y0182982D02*
X0062774Y0182982D01*
X0063689Y0183981D02*
X0066152Y0183981D01*
X0066152Y0184979D02*
X0064192Y0184979D01*
X0064427Y0185978D02*
X0066152Y0185978D01*
X0070752Y0185978D02*
X0177393Y0185978D01*
X0176923Y0185783D02*
X0177915Y0186194D01*
X0178324Y0186194D01*
X0185124Y0192994D01*
X0185534Y0192994D01*
X0185452Y0193297D01*
X0185452Y0195994D01*
X0189452Y0195994D01*
X0189452Y0196781D01*
X0064452Y0196781D01*
X0064452Y0195599D01*
X0064349Y0195350D01*
X0070752Y0188947D01*
X0070752Y0147707D01*
X0071084Y0148039D01*
X0072077Y0148450D01*
X0072485Y0148450D01*
X0072530Y0148494D01*
X0185910Y0148494D01*
X0186138Y0149043D01*
X0186589Y0149494D01*
X0172771Y0149494D01*
X0172482Y0149205D01*
X0171490Y0148794D01*
X0170415Y0148794D01*
X0169423Y0149205D01*
X0168664Y0149965D01*
X0168252Y0150957D01*
X0168252Y0152031D01*
X0168664Y0153024D01*
X0169423Y0153783D01*
X0170415Y0154194D01*
X0171490Y0154194D01*
X0172482Y0153783D01*
X0172771Y0153494D01*
X0186589Y0153494D01*
X0186138Y0153945D01*
X0185452Y0155599D01*
X0185452Y0157389D01*
X0186138Y0159043D01*
X0187403Y0160309D01*
X0189057Y0160994D01*
X0190848Y0160994D01*
X0192502Y0160309D01*
X0193767Y0159043D01*
X0194452Y0157389D01*
X0194452Y0155599D01*
X0193767Y0153945D01*
X0193316Y0153494D01*
X0196589Y0153494D01*
X0196138Y0153945D01*
X0195452Y0155599D01*
X0195452Y0157389D01*
X0196138Y0159043D01*
X0197403Y0160309D01*
X0199057Y0160994D01*
X0200848Y0160994D01*
X0202502Y0160309D01*
X0203767Y0159043D01*
X0204452Y0157389D01*
X0204452Y0155599D01*
X0203903Y0154273D01*
X0207124Y0157494D01*
X0212652Y0157494D01*
X0213044Y0158440D01*
X0214507Y0159902D01*
X0215970Y0160508D01*
X0215456Y0160675D01*
X0214727Y0161047D01*
X0214065Y0161528D01*
X0213486Y0162107D01*
X0213005Y0162769D01*
X0212633Y0163498D01*
X0212380Y0164276D01*
X0212267Y0164994D01*
X0216952Y0164994D01*
X0216952Y0165994D01*
X0212267Y0165994D01*
X0212380Y0166712D01*
X0212633Y0167490D01*
X0213005Y0168219D01*
X0213486Y0168882D01*
X0214065Y0169460D01*
X0214727Y0169942D01*
X0215456Y0170313D01*
X0215970Y0170480D01*
X0214507Y0171086D01*
X0213044Y0172549D01*
X0212252Y0174460D01*
X0212252Y0176528D01*
X0213044Y0178440D01*
X0214507Y0179902D01*
X0215935Y0180494D01*
X0214507Y0181086D01*
X0213044Y0182549D01*
X0212252Y0184460D01*
X0212252Y0186528D01*
X0213044Y0188440D01*
X0214507Y0189902D01*
X0215935Y0190494D01*
X0214507Y0191086D01*
X0213044Y0192549D01*
X0212837Y0193050D01*
X0209952Y0190166D01*
X0208781Y0188994D01*
X0203788Y0188994D01*
X0204452Y0187389D01*
X0204452Y0185599D01*
X0203767Y0183945D01*
X0202502Y0182679D01*
X0200848Y0181994D01*
X0199057Y0181994D01*
X0197403Y0182679D01*
X0196138Y0183945D01*
X0195452Y0185599D01*
X0195452Y0187389D01*
X0196117Y0188994D01*
X0193788Y0188994D01*
X0194452Y0187389D01*
X0194452Y0185599D01*
X0193767Y0183945D01*
X0192502Y0182679D01*
X0190848Y0181994D01*
X0189057Y0181994D01*
X0187403Y0182679D01*
X0186138Y0183945D01*
X0185452Y0185599D01*
X0185452Y0187389D01*
X0185648Y0187861D01*
X0181152Y0183366D01*
X0181152Y0182957D01*
X0180741Y0181965D01*
X0179982Y0181205D01*
X0178990Y0180794D01*
X0177915Y0180794D01*
X0176923Y0181205D01*
X0176164Y0181965D01*
X0175752Y0182957D01*
X0175752Y0184031D01*
X0176164Y0185024D01*
X0176923Y0185783D01*
X0176145Y0184979D02*
X0070752Y0184979D01*
X0070752Y0183981D02*
X0175752Y0183981D01*
X0175752Y0182982D02*
X0070752Y0182982D01*
X0070752Y0181984D02*
X0176156Y0181984D01*
X0177454Y0180985D02*
X0070752Y0180985D01*
X0070752Y0179987D02*
X0187081Y0179987D01*
X0187403Y0180309D02*
X0186138Y0179043D01*
X0185910Y0178494D01*
X0169271Y0178494D01*
X0168982Y0178783D01*
X0167990Y0179194D01*
X0166915Y0179194D01*
X0165923Y0178783D01*
X0165164Y0178024D01*
X0164752Y0177031D01*
X0164752Y0175957D01*
X0165164Y0174965D01*
X0165923Y0174205D01*
X0166915Y0173794D01*
X0167990Y0173794D01*
X0168982Y0174205D01*
X0169271Y0174494D01*
X0185910Y0174494D01*
X0186138Y0173945D01*
X0187403Y0172679D01*
X0189057Y0171994D01*
X0190848Y0171994D01*
X0192502Y0172679D01*
X0193767Y0173945D01*
X0194452Y0175599D01*
X0194452Y0177389D01*
X0193767Y0179043D01*
X0192502Y0180309D01*
X0190848Y0180994D01*
X0189057Y0180994D01*
X0187403Y0180309D01*
X0189035Y0180985D02*
X0179450Y0180985D01*
X0180749Y0181984D02*
X0213609Y0181984D01*
X0212865Y0182982D02*
X0202804Y0182982D01*
X0203782Y0183981D02*
X0212451Y0183981D01*
X0212252Y0184979D02*
X0204196Y0184979D01*
X0204452Y0185978D02*
X0212252Y0185978D01*
X0212438Y0186976D02*
X0204452Y0186976D01*
X0204210Y0187975D02*
X0212851Y0187975D01*
X0213578Y0188973D02*
X0203796Y0188973D01*
X0202816Y0192994D02*
X0203767Y0193945D01*
X0204452Y0195599D01*
X0204452Y0196781D01*
X0210911Y0196781D01*
X0207124Y0192994D01*
X0202816Y0192994D01*
X0203776Y0193966D02*
X0208096Y0193966D01*
X0209094Y0194964D02*
X0204190Y0194964D01*
X0204452Y0195963D02*
X0210093Y0195963D01*
X0212452Y0195494D02*
X0207952Y0190994D01*
X0185952Y0190994D01*
X0178452Y0183494D01*
X0181152Y0182982D02*
X0187101Y0182982D01*
X0186123Y0183981D02*
X0181767Y0183981D01*
X0182766Y0184979D02*
X0185709Y0184979D01*
X0185452Y0185978D02*
X0183764Y0185978D01*
X0184763Y0186976D02*
X0185452Y0186976D01*
X0182102Y0189972D02*
X0069728Y0189972D01*
X0070726Y0188973D02*
X0181103Y0188973D01*
X0180105Y0187975D02*
X0070752Y0187975D01*
X0070752Y0186976D02*
X0179106Y0186976D01*
X0183100Y0190970D02*
X0068729Y0190970D01*
X0067731Y0191969D02*
X0184099Y0191969D01*
X0185097Y0192967D02*
X0066732Y0192967D01*
X0065734Y0193966D02*
X0185452Y0193966D01*
X0185452Y0194964D02*
X0064735Y0194964D01*
X0064452Y0195963D02*
X0185452Y0195963D01*
X0190453Y0195994D02*
X0190453Y0196781D01*
X0195452Y0196781D01*
X0195452Y0195599D01*
X0196138Y0193945D01*
X0197089Y0192994D01*
X0194371Y0192994D01*
X0194452Y0193297D01*
X0194452Y0195994D01*
X0190453Y0195994D01*
X0194452Y0195963D02*
X0195452Y0195963D01*
X0195715Y0194964D02*
X0194452Y0194964D01*
X0194452Y0193966D02*
X0196129Y0193966D01*
X0196109Y0188973D02*
X0193796Y0188973D01*
X0194210Y0187975D02*
X0195695Y0187975D01*
X0195452Y0186976D02*
X0194452Y0186976D01*
X0194452Y0185978D02*
X0195452Y0185978D01*
X0195709Y0184979D02*
X0194196Y0184979D01*
X0193782Y0183981D02*
X0196123Y0183981D01*
X0197101Y0182982D02*
X0192804Y0182982D01*
X0190869Y0180985D02*
X0199035Y0180985D01*
X0199057Y0180994D02*
X0197403Y0180309D01*
X0196138Y0179043D01*
X0195452Y0177389D01*
X0195452Y0175599D01*
X0196138Y0173945D01*
X0197403Y0172679D01*
X0199057Y0171994D01*
X0200848Y0171994D01*
X0202502Y0172679D01*
X0203767Y0173945D01*
X0204452Y0175599D01*
X0204452Y0177389D01*
X0203767Y0179043D01*
X0202502Y0180309D01*
X0200848Y0180994D01*
X0199057Y0180994D01*
X0200869Y0180985D02*
X0214750Y0180985D01*
X0214710Y0179987D02*
X0202824Y0179987D01*
X0203790Y0178988D02*
X0213592Y0178988D01*
X0212858Y0177989D02*
X0204204Y0177989D01*
X0204452Y0176991D02*
X0212444Y0176991D01*
X0212252Y0175992D02*
X0204452Y0175992D01*
X0204202Y0174994D02*
X0212252Y0174994D01*
X0212445Y0173995D02*
X0203788Y0173995D01*
X0202819Y0172997D02*
X0212858Y0172997D01*
X0213594Y0171998D02*
X0200858Y0171998D01*
X0200848Y0170994D02*
X0199057Y0170994D01*
X0197403Y0170309D01*
X0196138Y0169043D01*
X0195452Y0167389D01*
X0195452Y0165599D01*
X0196138Y0163945D01*
X0197403Y0162679D01*
X0199057Y0161994D01*
X0200848Y0161994D01*
X0202502Y0162679D01*
X0203767Y0163945D01*
X0204452Y0165599D01*
X0204452Y0167389D01*
X0203767Y0169043D01*
X0202502Y0170309D01*
X0200848Y0170994D01*
X0199047Y0171998D02*
X0190858Y0171998D01*
X0190848Y0170994D02*
X0189057Y0170994D01*
X0187403Y0170309D01*
X0186138Y0169043D01*
X0185452Y0167389D01*
X0185452Y0165599D01*
X0186138Y0163945D01*
X0187403Y0162679D01*
X0189057Y0161994D01*
X0190848Y0161994D01*
X0192502Y0162679D01*
X0193767Y0163945D01*
X0194452Y0165599D01*
X0194452Y0167389D01*
X0193767Y0169043D01*
X0192502Y0170309D01*
X0190848Y0170994D01*
X0189047Y0171998D02*
X0070752Y0171998D01*
X0070752Y0171000D02*
X0214714Y0171000D01*
X0214845Y0170001D02*
X0202809Y0170001D01*
X0203784Y0169003D02*
X0213607Y0169003D01*
X0212895Y0168004D02*
X0204198Y0168004D01*
X0204452Y0167006D02*
X0212476Y0167006D01*
X0212269Y0166007D02*
X0204452Y0166007D01*
X0204208Y0165009D02*
X0216952Y0165009D01*
X0213579Y0162013D02*
X0200894Y0162013D01*
X0199011Y0162013D02*
X0190894Y0162013D01*
X0189011Y0162013D02*
X0070752Y0162013D01*
X0070752Y0161015D02*
X0214790Y0161015D01*
X0214782Y0160016D02*
X0202794Y0160016D01*
X0203778Y0159018D02*
X0213622Y0159018D01*
X0212870Y0158019D02*
X0204191Y0158019D01*
X0204452Y0157021D02*
X0206651Y0157021D01*
X0205652Y0156022D02*
X0204452Y0156022D01*
X0204654Y0155024D02*
X0204214Y0155024D01*
X0203952Y0151494D02*
X0170952Y0151494D01*
X0169839Y0149033D02*
X0070752Y0149033D01*
X0070752Y0150031D02*
X0168636Y0150031D01*
X0168252Y0151030D02*
X0070752Y0151030D01*
X0070752Y0152028D02*
X0168252Y0152028D01*
X0168667Y0153027D02*
X0070752Y0153027D01*
X0070752Y0154025D02*
X0170008Y0154025D01*
X0171897Y0154025D02*
X0186104Y0154025D01*
X0185691Y0155024D02*
X0070752Y0155024D01*
X0070752Y0156022D02*
X0185452Y0156022D01*
X0185452Y0157021D02*
X0070752Y0157021D01*
X0070752Y0158019D02*
X0185713Y0158019D01*
X0186127Y0159018D02*
X0070752Y0159018D01*
X0070752Y0160016D02*
X0187111Y0160016D01*
X0187071Y0163012D02*
X0070752Y0163012D01*
X0070752Y0164010D02*
X0186110Y0164010D01*
X0185697Y0165009D02*
X0070752Y0165009D01*
X0070752Y0166007D02*
X0185452Y0166007D01*
X0185452Y0167006D02*
X0070752Y0167006D01*
X0070752Y0168004D02*
X0185707Y0168004D01*
X0186121Y0169003D02*
X0070752Y0169003D01*
X0070752Y0170001D02*
X0187096Y0170001D01*
X0187086Y0172997D02*
X0070752Y0172997D01*
X0070752Y0173995D02*
X0166429Y0173995D01*
X0165151Y0174994D02*
X0070752Y0174994D01*
X0070752Y0175992D02*
X0164752Y0175992D01*
X0164752Y0176991D02*
X0070752Y0176991D01*
X0070752Y0177989D02*
X0165149Y0177989D01*
X0166418Y0178988D02*
X0070752Y0178988D01*
X0066152Y0178988D02*
X0063790Y0178988D01*
X0063767Y0179043D02*
X0062502Y0180309D01*
X0060848Y0180994D01*
X0059057Y0180994D01*
X0057403Y0180309D01*
X0056138Y0179043D01*
X0055452Y0177389D01*
X0055452Y0175599D01*
X0056138Y0173945D01*
X0057403Y0172679D01*
X0059057Y0171994D01*
X0060848Y0171994D01*
X0062502Y0172679D01*
X0063767Y0173945D01*
X0064452Y0175599D01*
X0064452Y0177389D01*
X0063767Y0179043D01*
X0064204Y0177989D02*
X0066152Y0177989D01*
X0066152Y0176991D02*
X0064452Y0176991D01*
X0064452Y0175992D02*
X0066152Y0175992D01*
X0066152Y0174994D02*
X0064202Y0174994D01*
X0063788Y0173995D02*
X0066152Y0173995D01*
X0066152Y0172997D02*
X0062819Y0172997D01*
X0060858Y0171998D02*
X0066152Y0171998D01*
X0066152Y0171000D02*
X0047287Y0171000D01*
X0047403Y0170309D02*
X0046138Y0169043D01*
X0045452Y0167389D01*
X0045452Y0165599D01*
X0046138Y0163945D01*
X0047403Y0162679D01*
X0049057Y0161994D01*
X0050848Y0161994D01*
X0052502Y0162679D01*
X0053767Y0163945D01*
X0054452Y0165599D01*
X0054452Y0167389D01*
X0053767Y0169043D01*
X0052502Y0170309D01*
X0050848Y0170994D01*
X0049057Y0170994D01*
X0047403Y0170309D01*
X0047096Y0170001D02*
X0046288Y0170001D01*
X0046121Y0169003D02*
X0045290Y0169003D01*
X0045707Y0168004D02*
X0044291Y0168004D01*
X0043293Y0167006D02*
X0045452Y0167006D01*
X0045452Y0166007D02*
X0042294Y0166007D01*
X0041296Y0165009D02*
X0045697Y0165009D01*
X0046110Y0164010D02*
X0040297Y0164010D01*
X0039952Y0163012D02*
X0047071Y0163012D01*
X0049011Y0162013D02*
X0039952Y0162013D01*
X0039952Y0161015D02*
X0066152Y0161015D01*
X0066152Y0162013D02*
X0060894Y0162013D01*
X0060848Y0161994D02*
X0062502Y0162679D01*
X0063767Y0163945D01*
X0064452Y0165599D01*
X0064452Y0167389D01*
X0063767Y0169043D01*
X0062502Y0170309D01*
X0060848Y0170994D01*
X0059057Y0170994D01*
X0057403Y0170309D01*
X0056138Y0169043D01*
X0055452Y0167389D01*
X0055452Y0165599D01*
X0056138Y0163945D01*
X0057403Y0162679D01*
X0059057Y0161994D01*
X0060848Y0161994D01*
X0060848Y0160994D02*
X0059057Y0160994D01*
X0057403Y0160309D01*
X0056138Y0159043D01*
X0055452Y0157389D01*
X0055452Y0155599D01*
X0056138Y0153945D01*
X0057403Y0152679D01*
X0059057Y0151994D01*
X0060848Y0151994D01*
X0062502Y0152679D01*
X0063767Y0153945D01*
X0064452Y0155599D01*
X0064452Y0157389D01*
X0063767Y0159043D01*
X0062502Y0160309D01*
X0060848Y0160994D01*
X0059011Y0162013D02*
X0050894Y0162013D01*
X0050848Y0160994D02*
X0049057Y0160994D01*
X0047403Y0160309D01*
X0046138Y0159043D01*
X0045452Y0157389D01*
X0045452Y0155599D01*
X0046138Y0153945D01*
X0047403Y0152679D01*
X0049057Y0151994D01*
X0050848Y0151994D01*
X0052502Y0152679D01*
X0053767Y0153945D01*
X0054452Y0155599D01*
X0054452Y0157389D01*
X0053767Y0159043D01*
X0052502Y0160309D01*
X0050848Y0160994D01*
X0052794Y0160016D02*
X0057111Y0160016D01*
X0056127Y0159018D02*
X0053778Y0159018D01*
X0054191Y0158019D02*
X0055713Y0158019D01*
X0055452Y0157021D02*
X0054452Y0157021D01*
X0054452Y0156022D02*
X0055452Y0156022D01*
X0055691Y0155024D02*
X0054214Y0155024D01*
X0053801Y0154025D02*
X0056104Y0154025D01*
X0057056Y0153027D02*
X0052849Y0153027D01*
X0050930Y0152028D02*
X0058975Y0152028D01*
X0058899Y0150883D02*
X0059452Y0150971D01*
X0059452Y0146994D01*
X0059452Y0145994D01*
X0055476Y0145994D01*
X0055563Y0145440D01*
X0055782Y0144767D01*
X0056104Y0144136D01*
X0056520Y0143563D01*
X0057021Y0143062D01*
X0057594Y0142645D01*
X0058225Y0142324D01*
X0058899Y0142105D01*
X0059452Y0142017D01*
X0059452Y0145994D01*
X0060452Y0145994D01*
X0060452Y0142017D01*
X0061006Y0142105D01*
X0061680Y0142324D01*
X0062311Y0142645D01*
X0062884Y0143062D01*
X0063385Y0143563D01*
X0063801Y0144136D01*
X0064123Y0144767D01*
X0064342Y0145440D01*
X0064429Y0145994D01*
X0060453Y0145994D01*
X0060453Y0146994D01*
X0064429Y0146994D01*
X0064342Y0147548D01*
X0064123Y0148221D01*
X0063801Y0148853D01*
X0063385Y0149426D01*
X0062884Y0149926D01*
X0062311Y0150343D01*
X0061680Y0150664D01*
X0061006Y0150883D01*
X0060452Y0150971D01*
X0060452Y0146994D01*
X0059452Y0146994D01*
X0055476Y0146994D01*
X0055563Y0147548D01*
X0055782Y0148221D01*
X0056104Y0148853D01*
X0056520Y0149426D01*
X0057021Y0149926D01*
X0057594Y0150343D01*
X0058225Y0150664D01*
X0058899Y0150883D01*
X0059452Y0150031D02*
X0060452Y0150031D01*
X0060452Y0149033D02*
X0059452Y0149033D01*
X0059452Y0148034D02*
X0060452Y0148034D01*
X0060452Y0147036D02*
X0059452Y0147036D01*
X0059452Y0146037D02*
X0054452Y0146037D01*
X0054452Y0145599D02*
X0053767Y0143945D01*
X0052502Y0142679D01*
X0050848Y0141994D01*
X0049057Y0141994D01*
X0047403Y0142679D01*
X0046138Y0143945D01*
X0045452Y0145599D01*
X0045452Y0147389D01*
X0046138Y0149043D01*
X0047403Y0150309D01*
X0049057Y0150994D01*
X0050848Y0150994D01*
X0052502Y0150309D01*
X0053767Y0149043D01*
X0054452Y0147389D01*
X0054452Y0145599D01*
X0054220Y0145039D02*
X0055694Y0145039D01*
X0056173Y0144040D02*
X0053807Y0144040D01*
X0052864Y0143042D02*
X0057049Y0143042D01*
X0059452Y0143042D02*
X0060452Y0143042D01*
X0060452Y0144040D02*
X0059452Y0144040D01*
X0059452Y0145039D02*
X0060452Y0145039D01*
X0060453Y0146037D02*
X0066152Y0146037D01*
X0066152Y0145039D02*
X0064211Y0145039D01*
X0063732Y0144040D02*
X0066152Y0144040D01*
X0066152Y0143042D02*
X0062856Y0143042D01*
X0060616Y0142043D02*
X0066152Y0142043D01*
X0066152Y0141045D02*
X0039952Y0141045D01*
X0039952Y0142043D02*
X0048939Y0142043D01*
X0049057Y0140994D02*
X0047403Y0140309D01*
X0046138Y0139043D01*
X0045452Y0137389D01*
X0045452Y0135599D01*
X0046138Y0133945D01*
X0047403Y0132679D01*
X0049057Y0131994D01*
X0050848Y0131994D01*
X0052502Y0132679D01*
X0053767Y0133945D01*
X0054452Y0135599D01*
X0054452Y0137389D01*
X0053767Y0139043D01*
X0052502Y0140309D01*
X0050848Y0140994D01*
X0049057Y0140994D01*
X0047140Y0140046D02*
X0039952Y0140046D01*
X0039952Y0139048D02*
X0046142Y0139048D01*
X0045726Y0138049D02*
X0039952Y0138049D01*
X0039952Y0137051D02*
X0045452Y0137051D01*
X0045452Y0136052D02*
X0039952Y0136052D01*
X0039952Y0135053D02*
X0045678Y0135053D01*
X0046092Y0134055D02*
X0039952Y0134055D01*
X0039952Y0133056D02*
X0047026Y0133056D01*
X0048903Y0132058D02*
X0039845Y0132058D01*
X0038846Y0131059D02*
X0066152Y0131059D01*
X0066152Y0130061D02*
X0062750Y0130061D01*
X0063748Y0129062D02*
X0066152Y0129062D01*
X0066152Y0128064D02*
X0064173Y0128064D01*
X0064452Y0127065D02*
X0066152Y0127065D01*
X0066152Y0126067D02*
X0064452Y0126067D01*
X0064233Y0125068D02*
X0066152Y0125068D01*
X0070284Y0122073D02*
X0188867Y0122073D01*
X0189057Y0121994D02*
X0190848Y0121994D01*
X0192502Y0122679D01*
X0193767Y0123945D01*
X0194452Y0125599D01*
X0194452Y0127389D01*
X0193767Y0129043D01*
X0192502Y0130309D01*
X0190848Y0130994D01*
X0189057Y0130994D01*
X0187403Y0130309D01*
X0186138Y0129043D01*
X0185910Y0128494D01*
X0077530Y0128494D01*
X0076985Y0127950D01*
X0076577Y0127950D01*
X0075584Y0127539D01*
X0074825Y0126779D01*
X0074414Y0125787D01*
X0074414Y0124713D01*
X0074825Y0123721D01*
X0075584Y0122961D01*
X0076577Y0122550D01*
X0077651Y0122550D01*
X0078643Y0122961D01*
X0079403Y0123721D01*
X0079723Y0124494D01*
X0185910Y0124494D01*
X0186138Y0123945D01*
X0187403Y0122679D01*
X0189057Y0121994D01*
X0189057Y0120994D02*
X0187403Y0120309D01*
X0186138Y0119043D01*
X0185452Y0117389D01*
X0185452Y0115599D01*
X0186138Y0113945D01*
X0187403Y0112679D01*
X0189057Y0111994D01*
X0190848Y0111994D01*
X0192502Y0112679D01*
X0193767Y0113945D01*
X0194452Y0115599D01*
X0194452Y0117389D01*
X0193767Y0119043D01*
X0192502Y0120309D01*
X0190848Y0120994D01*
X0189057Y0120994D01*
X0187170Y0120076D02*
X0068287Y0120076D01*
X0067905Y0119694D02*
X0069405Y0121194D01*
X0070752Y0122541D01*
X0070752Y0143793D01*
X0071084Y0143461D01*
X0072077Y0143050D01*
X0073151Y0143050D01*
X0074143Y0143461D01*
X0074903Y0144221D01*
X0075016Y0144494D01*
X0185910Y0144494D01*
X0186138Y0143945D01*
X0187403Y0142679D01*
X0189057Y0141994D01*
X0190848Y0141994D01*
X0192502Y0142679D01*
X0193767Y0143945D01*
X0194452Y0145599D01*
X0194452Y0147389D01*
X0193767Y0149043D01*
X0193316Y0149494D01*
X0196589Y0149494D01*
X0196138Y0149043D01*
X0195452Y0147389D01*
X0195452Y0145599D01*
X0196138Y0143945D01*
X0197403Y0142679D01*
X0199057Y0141994D01*
X0200848Y0141994D01*
X0202502Y0142679D01*
X0203767Y0143945D01*
X0204452Y0145599D01*
X0204452Y0147389D01*
X0203767Y0149043D01*
X0203316Y0149494D01*
X0204781Y0149494D01*
X0205952Y0150666D01*
X0208781Y0153494D01*
X0212652Y0153494D01*
X0213044Y0152549D01*
X0214507Y0151086D01*
X0215935Y0150494D01*
X0214507Y0149902D01*
X0213044Y0148440D01*
X0212252Y0146528D01*
X0212252Y0144460D01*
X0213044Y0142549D01*
X0214507Y0141086D01*
X0215935Y0140494D01*
X0214507Y0139902D01*
X0213044Y0138440D01*
X0212252Y0136528D01*
X0212252Y0134460D01*
X0213044Y0132549D01*
X0214507Y0131086D01*
X0215935Y0130494D01*
X0214507Y0129902D01*
X0213044Y0128440D01*
X0212252Y0126528D01*
X0212252Y0124460D01*
X0213044Y0122549D01*
X0214507Y0121086D01*
X0215935Y0120494D01*
X0214507Y0119902D01*
X0213044Y0118440D01*
X0212252Y0116528D01*
X0212252Y0114460D01*
X0213044Y0112549D01*
X0214507Y0111086D01*
X0215935Y0110494D01*
X0214507Y0109902D01*
X0213044Y0108440D01*
X0212252Y0106528D01*
X0212252Y0104460D01*
X0213044Y0102549D01*
X0214507Y0101086D01*
X0216418Y0100294D01*
X0217964Y0100294D01*
X0217964Y0094694D01*
X0216418Y0094694D01*
X0214507Y0093902D01*
X0213044Y0092440D01*
X0212252Y0090528D01*
X0212252Y0088460D01*
X0213044Y0086549D01*
X0214507Y0085086D01*
X0215935Y0084494D01*
X0214507Y0083902D01*
X0213044Y0082440D01*
X0212252Y0080528D01*
X0212252Y0078460D01*
X0213044Y0076549D01*
X0214507Y0075086D01*
X0215935Y0074494D01*
X0214507Y0073902D01*
X0213044Y0072440D01*
X0212252Y0070528D01*
X0212252Y0068460D01*
X0213044Y0066549D01*
X0214507Y0065086D01*
X0215935Y0064494D01*
X0214507Y0063902D01*
X0213044Y0062440D01*
X0212252Y0060528D01*
X0212252Y0058460D01*
X0213044Y0056549D01*
X0214507Y0055086D01*
X0215935Y0054494D01*
X0214507Y0053902D01*
X0213044Y0052440D01*
X0212252Y0050528D01*
X0212252Y0048460D01*
X0213044Y0046549D01*
X0214507Y0045086D01*
X0215935Y0044494D01*
X0214507Y0043902D01*
X0213044Y0042440D01*
X0212652Y0041494D01*
X0211781Y0041494D01*
X0208952Y0044323D01*
X0208952Y0110323D01*
X0204225Y0115050D01*
X0204452Y0115599D01*
X0204452Y0117389D01*
X0203767Y0119043D01*
X0202502Y0120309D01*
X0200848Y0120994D01*
X0199057Y0120994D01*
X0197403Y0120309D01*
X0196138Y0119043D01*
X0195452Y0117389D01*
X0195452Y0115599D01*
X0196138Y0113945D01*
X0197403Y0112679D01*
X0199057Y0111994D01*
X0200848Y0111994D01*
X0201397Y0112222D01*
X0204952Y0108666D01*
X0204952Y0042666D01*
X0206124Y0041494D01*
X0210124Y0037494D01*
X0212652Y0037494D01*
X0213044Y0036549D01*
X0214507Y0035086D01*
X0215935Y0034494D01*
X0214728Y0033994D01*
X0203788Y0033994D01*
X0204452Y0035599D01*
X0204452Y0037389D01*
X0203767Y0039043D01*
X0202502Y0040309D01*
X0200848Y0040994D01*
X0199057Y0040994D01*
X0197403Y0040309D01*
X0196138Y0039043D01*
X0195452Y0037389D01*
X0195452Y0035599D01*
X0196117Y0033994D01*
X0193788Y0033994D01*
X0194452Y0035599D01*
X0194452Y0037389D01*
X0193767Y0039043D01*
X0192502Y0040309D01*
X0190848Y0040994D01*
X0189057Y0040994D01*
X0187403Y0040309D01*
X0186138Y0039043D01*
X0185452Y0037389D01*
X0185452Y0035599D01*
X0186117Y0033994D01*
X0167281Y0033994D01*
X0167152Y0034123D01*
X0167152Y0034531D01*
X0166741Y0035524D01*
X0165982Y0036283D01*
X0164990Y0036694D01*
X0163915Y0036694D01*
X0162923Y0036283D01*
X0162164Y0035524D01*
X0161752Y0034531D01*
X0161752Y0033457D01*
X0162164Y0032465D01*
X0162923Y0031705D01*
X0163915Y0031294D01*
X0164324Y0031294D01*
X0164452Y0031166D01*
X0165624Y0029994D01*
X0187089Y0029994D01*
X0186138Y0029043D01*
X0185452Y0027389D01*
X0185452Y0025599D01*
X0186138Y0023945D01*
X0187403Y0022679D01*
X0189057Y0021994D01*
X0190848Y0021994D01*
X0192502Y0022679D01*
X0193767Y0023945D01*
X0194452Y0025599D01*
X0194452Y0027389D01*
X0193767Y0029043D01*
X0192816Y0029994D01*
X0197089Y0029994D01*
X0196138Y0029043D01*
X0195452Y0027389D01*
X0195452Y0025599D01*
X0196138Y0023945D01*
X0197403Y0022679D01*
X0199057Y0021994D01*
X0200848Y0021994D01*
X0202502Y0022679D01*
X0203767Y0023945D01*
X0204452Y0025599D01*
X0204452Y0027389D01*
X0203767Y0029043D01*
X0202816Y0029994D01*
X0212252Y0029994D01*
X0212252Y0028460D01*
X0213044Y0026549D01*
X0214507Y0025086D01*
X0215935Y0024494D01*
X0214507Y0023902D01*
X0213044Y0022440D01*
X0212252Y0020528D01*
X0212252Y0018460D01*
X0213044Y0016549D01*
X0214507Y0015086D01*
X0216418Y0014294D01*
X0217964Y0014294D01*
X0217964Y0010248D01*
X0214005Y0006250D01*
X0200453Y0006250D01*
X0200453Y0006994D01*
X0204429Y0006994D01*
X0204342Y0007548D01*
X0204123Y0008221D01*
X0203801Y0008853D01*
X0203385Y0009426D01*
X0202884Y0009926D01*
X0202311Y0010343D01*
X0201680Y0010664D01*
X0201006Y0010883D01*
X0200452Y0010971D01*
X0200452Y0006994D01*
X0199452Y0006994D01*
X0199452Y0006250D01*
X0190453Y0006250D01*
X0190453Y0006994D01*
X0194429Y0006994D01*
X0194342Y0007548D01*
X0194123Y0008221D01*
X0193801Y0008853D01*
X0193385Y0009426D01*
X0192884Y0009926D01*
X0192311Y0010343D01*
X0191680Y0010664D01*
X0191006Y0010883D01*
X0190452Y0010971D01*
X0190452Y0006994D01*
X0189452Y0006994D01*
X0189452Y0006250D01*
X0142062Y0006250D01*
X0142652Y0006840D01*
X0142652Y0011148D01*
X0139806Y0013994D01*
X0142652Y0016840D01*
X0142652Y0021148D01*
X0139606Y0024194D01*
X0135299Y0024194D01*
X0132452Y0021348D01*
X0129606Y0024194D01*
X0125299Y0024194D01*
X0122452Y0021348D01*
X0119606Y0024194D01*
X0115299Y0024194D01*
X0112252Y0021148D01*
X0112252Y0016840D01*
X0115099Y0013994D01*
X0112252Y0011148D01*
X0112252Y0009494D01*
X0116952Y0009494D01*
X0116952Y0008494D01*
X0112252Y0008494D01*
X0112252Y0006840D01*
X0112843Y0006250D01*
X0064452Y0006250D01*
X0064452Y0007389D01*
X0063767Y0009043D01*
X0062502Y0010309D01*
X0060848Y0010994D01*
X0059057Y0010994D01*
X0057403Y0010309D01*
X0056138Y0009043D01*
X0055452Y0007389D01*
X0055452Y0006250D01*
X0050453Y0006250D01*
X0050453Y0006994D01*
X0054429Y0006994D01*
X0054342Y0007548D01*
X0054123Y0008221D01*
X0053801Y0008853D01*
X0053385Y0009426D01*
X0052884Y0009926D01*
X0052311Y0010343D01*
X0051680Y0010664D01*
X0051006Y0010883D01*
X0050452Y0010971D01*
X0050452Y0006994D01*
X0049452Y0006994D01*
X0049452Y0006250D01*
X0046069Y0006250D01*
X0040126Y0012193D01*
X0040126Y0012193D01*
X0039282Y0013037D01*
X0038179Y0013494D01*
X0029232Y0013494D01*
X0029110Y0013533D01*
X0028639Y0013494D01*
X0028239Y0013494D01*
X0027773Y0013643D01*
X0027383Y0013973D01*
X0027218Y0014294D01*
X0028487Y0014294D01*
X0030398Y0015086D01*
X0031861Y0016549D01*
X0032652Y0018460D01*
X0032652Y0020528D01*
X0031861Y0022440D01*
X0030398Y0023902D01*
X0028970Y0024494D01*
X0030398Y0025086D01*
X0031861Y0026549D01*
X0032652Y0028460D01*
X0032652Y0030528D01*
X0031861Y0032440D01*
X0030398Y0033902D01*
X0028970Y0034494D01*
X0030398Y0035086D01*
X0031861Y0036549D01*
X0032652Y0038460D01*
X0032652Y0040528D01*
X0031861Y0042440D01*
X0030398Y0043902D01*
X0028970Y0044494D01*
X0030398Y0045086D01*
X0031861Y0046549D01*
X0032652Y0048460D01*
X0032652Y0050528D01*
X0031990Y0052128D01*
X0034868Y0049250D01*
X0046344Y0049250D01*
X0046138Y0049043D01*
X0045452Y0047389D01*
X0045452Y0045599D01*
X0046138Y0043945D01*
X0047403Y0042679D01*
X0049057Y0041994D01*
X0050848Y0041994D01*
X0052502Y0042679D01*
X0053767Y0043945D01*
X0054452Y0045599D01*
X0054452Y0047389D01*
X0053767Y0049043D01*
X0053560Y0049250D01*
X0056344Y0049250D01*
X0056138Y0049043D01*
X0055452Y0047389D01*
X0055452Y0045599D01*
X0056138Y0043945D01*
X0057403Y0042679D01*
X0059057Y0041994D01*
X0060848Y0041994D01*
X0062502Y0042679D01*
X0063767Y0043945D01*
X0064452Y0045599D01*
X0064452Y0047389D01*
X0063962Y0048574D01*
X0067785Y0044750D01*
X0072795Y0044750D01*
X0073084Y0044461D01*
X0074077Y0044050D01*
X0075151Y0044050D01*
X0076143Y0044461D01*
X0076903Y0045221D01*
X0077314Y0046213D01*
X0077314Y0047287D01*
X0076903Y0048279D01*
X0076188Y0048994D01*
X0181134Y0048994D01*
X0181423Y0048705D01*
X0182415Y0048294D01*
X0183490Y0048294D01*
X0184482Y0048705D01*
X0185241Y0049465D01*
X0185652Y0050457D01*
X0185652Y0051531D01*
X0185241Y0052524D01*
X0184482Y0053283D01*
X0183490Y0053694D01*
X0182415Y0053694D01*
X0181423Y0053283D01*
X0181134Y0052994D01*
X0071771Y0052994D01*
X0071482Y0053283D01*
X0070490Y0053694D01*
X0069415Y0053694D01*
X0068423Y0053283D01*
X0067664Y0052524D01*
X0067252Y0051531D01*
X0067252Y0050940D01*
X0066114Y0052078D01*
X0064942Y0053250D01*
X0063072Y0053250D01*
X0063767Y0053945D01*
X0064452Y0055599D01*
X0064452Y0057389D01*
X0063767Y0059043D01*
X0062502Y0060309D01*
X0060848Y0060994D01*
X0059057Y0060994D01*
X0057403Y0060309D01*
X0056138Y0059043D01*
X0055452Y0057389D01*
X0055452Y0055599D01*
X0056138Y0053945D01*
X0056833Y0053250D01*
X0053072Y0053250D01*
X0053767Y0053945D01*
X0054452Y0055599D01*
X0054452Y0057389D01*
X0053767Y0059043D01*
X0052502Y0060309D01*
X0050848Y0060994D01*
X0049057Y0060994D01*
X0047403Y0060309D01*
X0046138Y0059043D01*
X0045452Y0057389D01*
X0045452Y0055599D01*
X0046138Y0053945D01*
X0046833Y0053250D01*
X0036525Y0053250D01*
X0032261Y0057514D01*
X0032652Y0058460D01*
X0032652Y0060528D01*
X0031861Y0062440D01*
X0030398Y0063902D01*
X0028970Y0064494D01*
X0030398Y0065086D01*
X0031861Y0066549D01*
X0032252Y0067494D01*
X0035781Y0067494D01*
X0038781Y0070494D01*
X0039952Y0071666D01*
X0039952Y0093666D01*
X0046537Y0100250D01*
X0047344Y0100250D01*
X0046138Y0099043D01*
X0045452Y0097389D01*
X0045452Y0095599D01*
X0046138Y0093945D01*
X0047403Y0092679D01*
X0049057Y0091994D01*
X0050848Y0091994D01*
X0052502Y0092679D01*
X0053767Y0093945D01*
X0054452Y0095599D01*
X0054452Y0097389D01*
X0053767Y0099043D01*
X0052560Y0100250D01*
X0057344Y0100250D01*
X0056138Y0099043D01*
X0055452Y0097389D01*
X0055452Y0095599D01*
X0056138Y0093945D01*
X0057403Y0092679D01*
X0059057Y0091994D01*
X0060848Y0091994D01*
X0062502Y0092679D01*
X0063767Y0093945D01*
X0064452Y0095599D01*
X0064452Y0095809D01*
X0065077Y0095550D01*
X0066151Y0095550D01*
X0067143Y0095961D01*
X0067432Y0096250D01*
X0074442Y0096250D01*
X0082686Y0104494D01*
X0185910Y0104494D01*
X0186138Y0103945D01*
X0187403Y0102679D01*
X0189057Y0101994D01*
X0190848Y0101994D01*
X0192502Y0102679D01*
X0193767Y0103945D01*
X0194452Y0105599D01*
X0194452Y0107389D01*
X0193767Y0109043D01*
X0192502Y0110309D01*
X0190848Y0110994D01*
X0189057Y0110994D01*
X0187403Y0110309D01*
X0186138Y0109043D01*
X0185910Y0108494D01*
X0081030Y0108494D01*
X0079858Y0107323D01*
X0075314Y0102778D01*
X0075314Y0103287D01*
X0074903Y0104279D01*
X0074143Y0105039D01*
X0073151Y0105450D01*
X0072077Y0105450D01*
X0071084Y0105039D01*
X0070325Y0104279D01*
X0070313Y0104250D01*
X0063894Y0104250D01*
X0064452Y0105599D01*
X0064452Y0107389D01*
X0063767Y0109043D01*
X0062502Y0110309D01*
X0060848Y0110994D01*
X0059057Y0110994D01*
X0057403Y0110309D01*
X0056138Y0109043D01*
X0055452Y0107389D01*
X0055452Y0105599D01*
X0056011Y0104250D01*
X0053894Y0104250D01*
X0054452Y0105599D01*
X0054452Y0107389D01*
X0053767Y0109043D01*
X0052502Y0110309D01*
X0050848Y0110994D01*
X0049057Y0110994D01*
X0047403Y0110309D01*
X0046138Y0109043D01*
X0045452Y0107389D01*
X0045452Y0105599D01*
X0046011Y0104250D01*
X0044880Y0104250D01*
X0036752Y0096122D01*
X0036752Y0113541D01*
X0042905Y0119694D01*
X0046789Y0119694D01*
X0046138Y0119043D01*
X0045452Y0117389D01*
X0045452Y0115599D01*
X0046138Y0113945D01*
X0047403Y0112679D01*
X0049057Y0111994D01*
X0050848Y0111994D01*
X0052502Y0112679D01*
X0053767Y0113945D01*
X0054452Y0115599D01*
X0054452Y0117389D01*
X0053767Y0119043D01*
X0053116Y0119694D01*
X0056789Y0119694D01*
X0056138Y0119043D01*
X0055452Y0117389D01*
X0055452Y0115599D01*
X0056138Y0113945D01*
X0057403Y0112679D01*
X0059057Y0111994D01*
X0060848Y0111994D01*
X0062502Y0112679D01*
X0063767Y0113945D01*
X0064452Y0115599D01*
X0064452Y0117389D01*
X0063767Y0119043D01*
X0063116Y0119694D01*
X0067905Y0119694D01*
X0069285Y0121074D02*
X0214534Y0121074D01*
X0214925Y0120076D02*
X0202735Y0120076D01*
X0203733Y0119077D02*
X0213682Y0119077D01*
X0212895Y0118079D02*
X0204167Y0118079D01*
X0204452Y0117080D02*
X0212481Y0117080D01*
X0212252Y0116082D02*
X0204452Y0116082D01*
X0204239Y0115083D02*
X0212252Y0115083D01*
X0212408Y0114085D02*
X0205190Y0114085D01*
X0206189Y0113086D02*
X0212821Y0113086D01*
X0213505Y0112088D02*
X0207187Y0112088D01*
X0208186Y0111089D02*
X0214503Y0111089D01*
X0214961Y0110091D02*
X0208952Y0110091D01*
X0208952Y0109092D02*
X0213697Y0109092D01*
X0212901Y0108094D02*
X0208952Y0108094D01*
X0208952Y0107095D02*
X0212487Y0107095D01*
X0212252Y0106097D02*
X0208952Y0106097D01*
X0208952Y0105098D02*
X0212252Y0105098D01*
X0212402Y0104100D02*
X0208952Y0104100D01*
X0208952Y0103101D02*
X0212815Y0103101D01*
X0213490Y0102103D02*
X0208952Y0102103D01*
X0208952Y0101104D02*
X0214489Y0101104D01*
X0217964Y0100106D02*
X0208952Y0100106D01*
X0208952Y0099107D02*
X0217964Y0099107D01*
X0217964Y0098109D02*
X0208952Y0098109D01*
X0208952Y0097110D02*
X0217964Y0097110D01*
X0217964Y0096112D02*
X0208952Y0096112D01*
X0208952Y0095113D02*
X0217964Y0095113D01*
X0215019Y0094115D02*
X0208952Y0094115D01*
X0208952Y0093116D02*
X0213720Y0093116D01*
X0212911Y0092118D02*
X0208952Y0092118D01*
X0208952Y0091119D02*
X0212497Y0091119D01*
X0212252Y0090120D02*
X0208952Y0090120D01*
X0208952Y0089122D02*
X0212252Y0089122D01*
X0212392Y0088123D02*
X0208952Y0088123D01*
X0208952Y0087125D02*
X0212805Y0087125D01*
X0213466Y0086126D02*
X0208952Y0086126D01*
X0208952Y0085128D02*
X0214465Y0085128D01*
X0215055Y0084129D02*
X0208952Y0084129D01*
X0208952Y0083131D02*
X0213735Y0083131D01*
X0212917Y0082132D02*
X0208952Y0082132D01*
X0208952Y0081134D02*
X0212503Y0081134D01*
X0212252Y0080135D02*
X0208952Y0080135D01*
X0208952Y0079137D02*
X0212252Y0079137D01*
X0212386Y0078138D02*
X0208952Y0078138D01*
X0208952Y0077140D02*
X0212799Y0077140D01*
X0213451Y0076141D02*
X0208952Y0076141D01*
X0208952Y0075143D02*
X0214450Y0075143D01*
X0215091Y0074144D02*
X0208952Y0074144D01*
X0208952Y0073146D02*
X0213750Y0073146D01*
X0212923Y0072147D02*
X0208952Y0072147D01*
X0208952Y0071149D02*
X0212509Y0071149D01*
X0212252Y0070150D02*
X0208952Y0070150D01*
X0208952Y0069152D02*
X0212252Y0069152D01*
X0212379Y0068153D02*
X0208952Y0068153D01*
X0208952Y0067155D02*
X0212793Y0067155D01*
X0213436Y0066156D02*
X0208952Y0066156D01*
X0208952Y0065158D02*
X0214435Y0065158D01*
X0215127Y0064159D02*
X0208952Y0064159D01*
X0208952Y0063161D02*
X0213765Y0063161D01*
X0212929Y0062162D02*
X0208952Y0062162D01*
X0208952Y0061164D02*
X0212516Y0061164D01*
X0212252Y0060165D02*
X0208952Y0060165D01*
X0208952Y0059167D02*
X0212252Y0059167D01*
X0212373Y0058168D02*
X0208952Y0058168D01*
X0208952Y0057170D02*
X0212787Y0057170D01*
X0213422Y0056171D02*
X0208952Y0056171D01*
X0208952Y0055173D02*
X0214420Y0055173D01*
X0215163Y0054174D02*
X0208952Y0054174D01*
X0208952Y0053176D02*
X0213780Y0053176D01*
X0212935Y0052177D02*
X0208952Y0052177D01*
X0208952Y0051179D02*
X0212522Y0051179D01*
X0212252Y0050180D02*
X0208952Y0050180D01*
X0208952Y0049182D02*
X0212252Y0049182D01*
X0212367Y0048183D02*
X0208952Y0048183D01*
X0208952Y0047184D02*
X0212781Y0047184D01*
X0213407Y0046186D02*
X0208952Y0046186D01*
X0208952Y0045187D02*
X0214405Y0045187D01*
X0215199Y0044189D02*
X0209086Y0044189D01*
X0210085Y0043190D02*
X0213795Y0043190D01*
X0212942Y0042192D02*
X0211083Y0042192D01*
X0210952Y0039494D02*
X0206952Y0043494D01*
X0206952Y0109494D01*
X0199952Y0116494D01*
X0195738Y0118079D02*
X0194167Y0118079D01*
X0194452Y0117080D02*
X0195452Y0117080D01*
X0195452Y0116082D02*
X0194452Y0116082D01*
X0194239Y0115083D02*
X0195666Y0115083D01*
X0196080Y0114085D02*
X0193825Y0114085D01*
X0192909Y0113086D02*
X0196996Y0113086D01*
X0198831Y0112088D02*
X0191074Y0112088D01*
X0188831Y0112088D02*
X0061074Y0112088D01*
X0062909Y0113086D02*
X0186996Y0113086D01*
X0186080Y0114085D02*
X0063825Y0114085D01*
X0064239Y0115083D02*
X0185666Y0115083D01*
X0185452Y0116082D02*
X0064452Y0116082D01*
X0064452Y0117080D02*
X0185452Y0117080D01*
X0185738Y0118079D02*
X0064167Y0118079D01*
X0063733Y0119077D02*
X0186172Y0119077D01*
X0187011Y0123071D02*
X0078754Y0123071D01*
X0079547Y0124070D02*
X0186086Y0124070D01*
X0189952Y0126494D02*
X0078358Y0126494D01*
X0077114Y0125250D01*
X0075111Y0127065D02*
X0070752Y0127065D01*
X0070752Y0126067D02*
X0074530Y0126067D01*
X0074414Y0125068D02*
X0070752Y0125068D01*
X0070752Y0124070D02*
X0074680Y0124070D01*
X0075474Y0123071D02*
X0070752Y0123071D01*
X0070752Y0128064D02*
X0077099Y0128064D01*
X0070752Y0129062D02*
X0186157Y0129062D01*
X0187155Y0130061D02*
X0070752Y0130061D01*
X0070752Y0131059D02*
X0214570Y0131059D01*
X0214890Y0130061D02*
X0202750Y0130061D01*
X0202502Y0130309D02*
X0203767Y0129043D01*
X0204452Y0127389D01*
X0204452Y0125599D01*
X0203767Y0123945D01*
X0202502Y0122679D01*
X0200848Y0121994D01*
X0199057Y0121994D01*
X0197403Y0122679D01*
X0196138Y0123945D01*
X0195452Y0125599D01*
X0195452Y0127389D01*
X0196138Y0129043D01*
X0197403Y0130309D01*
X0199057Y0130994D01*
X0200848Y0130994D01*
X0202502Y0130309D01*
X0203748Y0129062D02*
X0213667Y0129062D01*
X0212888Y0128064D02*
X0204173Y0128064D01*
X0204452Y0127065D02*
X0212475Y0127065D01*
X0212252Y0126067D02*
X0204452Y0126067D01*
X0204233Y0125068D02*
X0212252Y0125068D01*
X0212414Y0124070D02*
X0203819Y0124070D01*
X0202894Y0123071D02*
X0212828Y0123071D01*
X0213520Y0122073D02*
X0201038Y0122073D01*
X0198867Y0122073D02*
X0191038Y0122073D01*
X0192894Y0123071D02*
X0197011Y0123071D01*
X0196086Y0124070D02*
X0193819Y0124070D01*
X0194233Y0125068D02*
X0195672Y0125068D01*
X0195452Y0126067D02*
X0194452Y0126067D01*
X0194452Y0127065D02*
X0195452Y0127065D01*
X0195732Y0128064D02*
X0194173Y0128064D01*
X0193748Y0129062D02*
X0196157Y0129062D01*
X0197155Y0130061D02*
X0192750Y0130061D01*
X0192502Y0132679D02*
X0190848Y0131994D01*
X0189057Y0131994D01*
X0187403Y0132679D01*
X0186138Y0133945D01*
X0185452Y0135599D01*
X0185452Y0137389D01*
X0186138Y0139043D01*
X0187403Y0140309D01*
X0189057Y0140994D01*
X0190848Y0140994D01*
X0192502Y0140309D01*
X0193767Y0139043D01*
X0194452Y0137389D01*
X0194452Y0135599D01*
X0193767Y0133945D01*
X0192502Y0132679D01*
X0192879Y0133056D02*
X0197026Y0133056D01*
X0197403Y0132679D02*
X0199057Y0131994D01*
X0200848Y0131994D01*
X0202502Y0132679D01*
X0203767Y0133945D01*
X0204452Y0135599D01*
X0204452Y0137389D01*
X0203767Y0139043D01*
X0202502Y0140309D01*
X0200848Y0140994D01*
X0199057Y0140994D01*
X0197403Y0140309D01*
X0196138Y0139043D01*
X0195452Y0137389D01*
X0195452Y0135599D01*
X0196138Y0133945D01*
X0197403Y0132679D01*
X0198903Y0132058D02*
X0191002Y0132058D01*
X0188903Y0132058D02*
X0070752Y0132058D01*
X0070752Y0133056D02*
X0187026Y0133056D01*
X0186092Y0134055D02*
X0070752Y0134055D01*
X0070752Y0135053D02*
X0185678Y0135053D01*
X0185452Y0136052D02*
X0070752Y0136052D01*
X0070752Y0137051D02*
X0185452Y0137051D01*
X0185726Y0138049D02*
X0070752Y0138049D01*
X0070752Y0139048D02*
X0186142Y0139048D01*
X0187140Y0140046D02*
X0070752Y0140046D01*
X0070752Y0141045D02*
X0214606Y0141045D01*
X0214854Y0140046D02*
X0202764Y0140046D01*
X0203763Y0139048D02*
X0213652Y0139048D01*
X0212882Y0138049D02*
X0204179Y0138049D01*
X0204452Y0137051D02*
X0212469Y0137051D01*
X0212252Y0136052D02*
X0204452Y0136052D01*
X0204227Y0135053D02*
X0212252Y0135053D01*
X0212420Y0134055D02*
X0203813Y0134055D01*
X0202879Y0133056D02*
X0212834Y0133056D01*
X0213535Y0132058D02*
X0201002Y0132058D01*
X0196092Y0134055D02*
X0193813Y0134055D01*
X0194227Y0135053D02*
X0195678Y0135053D01*
X0195452Y0136052D02*
X0194452Y0136052D01*
X0194452Y0137051D02*
X0195452Y0137051D01*
X0195726Y0138049D02*
X0194179Y0138049D01*
X0193763Y0139048D02*
X0196142Y0139048D01*
X0197140Y0140046D02*
X0192764Y0140046D01*
X0190966Y0142043D02*
X0198939Y0142043D01*
X0200966Y0142043D02*
X0213550Y0142043D01*
X0212840Y0143042D02*
X0202864Y0143042D01*
X0203807Y0144040D02*
X0212426Y0144040D01*
X0212252Y0145039D02*
X0204220Y0145039D01*
X0204452Y0146037D02*
X0212252Y0146037D01*
X0212463Y0147036D02*
X0204452Y0147036D01*
X0204185Y0148034D02*
X0212876Y0148034D01*
X0213637Y0149033D02*
X0203772Y0149033D01*
X0205318Y0150031D02*
X0214818Y0150031D01*
X0214642Y0151030D02*
X0206316Y0151030D01*
X0207315Y0152028D02*
X0213564Y0152028D01*
X0212846Y0153027D02*
X0208313Y0153027D01*
X0207952Y0155494D02*
X0203952Y0151494D01*
X0207952Y0155494D02*
X0217452Y0155494D01*
X0212881Y0163012D02*
X0202834Y0163012D01*
X0203794Y0164010D02*
X0212467Y0164010D01*
X0197071Y0163012D02*
X0192834Y0163012D01*
X0193794Y0164010D02*
X0196110Y0164010D01*
X0195697Y0165009D02*
X0194208Y0165009D01*
X0194452Y0166007D02*
X0195452Y0166007D01*
X0195452Y0167006D02*
X0194452Y0167006D01*
X0194198Y0168004D02*
X0195707Y0168004D01*
X0196121Y0169003D02*
X0193784Y0169003D01*
X0192809Y0170001D02*
X0197096Y0170001D01*
X0197086Y0172997D02*
X0192819Y0172997D01*
X0193788Y0173995D02*
X0196117Y0173995D01*
X0195703Y0174994D02*
X0194202Y0174994D01*
X0194452Y0175992D02*
X0195452Y0175992D01*
X0195452Y0176991D02*
X0194452Y0176991D01*
X0194204Y0177989D02*
X0195701Y0177989D01*
X0196115Y0178988D02*
X0193790Y0178988D01*
X0192824Y0179987D02*
X0197081Y0179987D01*
X0189952Y0176494D02*
X0167452Y0176494D01*
X0168476Y0173995D02*
X0186117Y0173995D01*
X0186115Y0178988D02*
X0168487Y0178988D01*
X0192794Y0160016D02*
X0197111Y0160016D01*
X0196127Y0159018D02*
X0193778Y0159018D01*
X0194191Y0158019D02*
X0195713Y0158019D01*
X0195452Y0157021D02*
X0194452Y0157021D01*
X0194452Y0156022D02*
X0195452Y0156022D01*
X0195691Y0155024D02*
X0194214Y0155024D01*
X0193801Y0154025D02*
X0196104Y0154025D01*
X0196133Y0149033D02*
X0193772Y0149033D01*
X0194185Y0148034D02*
X0195720Y0148034D01*
X0195452Y0147036D02*
X0194452Y0147036D01*
X0194452Y0146037D02*
X0195452Y0146037D01*
X0195685Y0145039D02*
X0194220Y0145039D01*
X0193807Y0144040D02*
X0196098Y0144040D01*
X0197041Y0143042D02*
X0192864Y0143042D01*
X0189952Y0146494D02*
X0073358Y0146494D01*
X0072614Y0145750D01*
X0074722Y0144040D02*
X0186098Y0144040D01*
X0187041Y0143042D02*
X0070752Y0143042D01*
X0070752Y0142043D02*
X0188939Y0142043D01*
X0186133Y0149033D02*
X0172065Y0149033D01*
X0192735Y0120076D02*
X0197170Y0120076D01*
X0196172Y0119077D02*
X0193733Y0119077D01*
X0201074Y0112088D02*
X0201530Y0112088D01*
X0200848Y0110994D02*
X0199057Y0110994D01*
X0197403Y0110309D01*
X0196138Y0109043D01*
X0195452Y0107389D01*
X0195452Y0105599D01*
X0196138Y0103945D01*
X0197403Y0102679D01*
X0199057Y0101994D01*
X0200848Y0101994D01*
X0202502Y0102679D01*
X0203767Y0103945D01*
X0204452Y0105599D01*
X0204452Y0107389D01*
X0203767Y0109043D01*
X0202502Y0110309D01*
X0200848Y0110994D01*
X0202529Y0111089D02*
X0036752Y0111089D01*
X0036752Y0110091D02*
X0047185Y0110091D01*
X0046187Y0109092D02*
X0036752Y0109092D01*
X0036752Y0108094D02*
X0045744Y0108094D01*
X0045452Y0107095D02*
X0036752Y0107095D01*
X0036752Y0106097D02*
X0045452Y0106097D01*
X0045660Y0105098D02*
X0036752Y0105098D01*
X0036752Y0104100D02*
X0044730Y0104100D01*
X0043731Y0103101D02*
X0036752Y0103101D01*
X0036752Y0102103D02*
X0042733Y0102103D01*
X0041734Y0101104D02*
X0036752Y0101104D01*
X0036752Y0100106D02*
X0040736Y0100106D01*
X0039737Y0099107D02*
X0036752Y0099107D01*
X0036752Y0098109D02*
X0038739Y0098109D01*
X0037740Y0097110D02*
X0036752Y0097110D01*
X0037952Y0094494D02*
X0045708Y0102250D01*
X0064114Y0102250D01*
X0066114Y0102250D01*
X0072114Y0102250D01*
X0072614Y0102750D01*
X0071594Y0100250D02*
X0067432Y0100250D01*
X0067432Y0100250D01*
X0071594Y0100250D01*
X0071594Y0100250D01*
X0073614Y0098250D02*
X0081858Y0106494D01*
X0189952Y0106494D01*
X0194161Y0108094D02*
X0195744Y0108094D01*
X0195452Y0107095D02*
X0194452Y0107095D01*
X0194452Y0106097D02*
X0195452Y0106097D01*
X0195660Y0105098D02*
X0194245Y0105098D01*
X0193831Y0104100D02*
X0196073Y0104100D01*
X0196981Y0103101D02*
X0192923Y0103101D01*
X0191110Y0102103D02*
X0198795Y0102103D01*
X0198899Y0100883D02*
X0198225Y0100664D01*
X0197594Y0100343D01*
X0197021Y0099926D01*
X0196520Y0099426D01*
X0196104Y0098853D01*
X0195782Y0098221D01*
X0195563Y0097548D01*
X0195476Y0096994D01*
X0199452Y0096994D01*
X0199452Y0095994D01*
X0195476Y0095994D01*
X0195563Y0095440D01*
X0195782Y0094767D01*
X0196104Y0094136D01*
X0196520Y0093563D01*
X0197021Y0093062D01*
X0197594Y0092645D01*
X0198225Y0092324D01*
X0198899Y0092105D01*
X0199452Y0092017D01*
X0199452Y0095994D01*
X0200452Y0095994D01*
X0200452Y0092017D01*
X0201006Y0092105D01*
X0201680Y0092324D01*
X0202311Y0092645D01*
X0202884Y0093062D01*
X0203385Y0093563D01*
X0203801Y0094136D01*
X0204123Y0094767D01*
X0204342Y0095440D01*
X0204429Y0095994D01*
X0200453Y0095994D01*
X0200453Y0096994D01*
X0204429Y0096994D01*
X0204342Y0097548D01*
X0204123Y0098221D01*
X0203801Y0098853D01*
X0203385Y0099426D01*
X0202884Y0099926D01*
X0202311Y0100343D01*
X0201680Y0100664D01*
X0201006Y0100883D01*
X0200452Y0100971D01*
X0200452Y0096994D01*
X0199452Y0096994D01*
X0199452Y0100971D01*
X0198899Y0100883D01*
X0199452Y0100106D02*
X0200452Y0100106D01*
X0200452Y0099107D02*
X0199452Y0099107D01*
X0199452Y0098109D02*
X0200452Y0098109D01*
X0200452Y0097110D02*
X0199452Y0097110D01*
X0199452Y0096112D02*
X0194452Y0096112D01*
X0194452Y0095599D02*
X0193767Y0093945D01*
X0192502Y0092679D01*
X0190848Y0091994D01*
X0189057Y0091994D01*
X0187403Y0092679D01*
X0186138Y0093945D01*
X0185452Y0095599D01*
X0185452Y0097389D01*
X0186138Y0099043D01*
X0187403Y0100309D01*
X0189057Y0100994D01*
X0190848Y0100994D01*
X0192502Y0100309D01*
X0193767Y0099043D01*
X0194452Y0097389D01*
X0194452Y0095599D01*
X0194251Y0095113D02*
X0195670Y0095113D01*
X0196119Y0094115D02*
X0193838Y0094115D01*
X0192938Y0093116D02*
X0196967Y0093116D01*
X0198860Y0092118D02*
X0191146Y0092118D01*
X0190848Y0090994D02*
X0189057Y0090994D01*
X0187403Y0090309D01*
X0186138Y0089043D01*
X0185452Y0087389D01*
X0185452Y0085599D01*
X0186138Y0083945D01*
X0187403Y0082679D01*
X0189057Y0081994D01*
X0190848Y0081994D01*
X0192502Y0082679D01*
X0193767Y0083945D01*
X0194452Y0085599D01*
X0194452Y0087389D01*
X0193767Y0089043D01*
X0192502Y0090309D01*
X0190848Y0090994D01*
X0192690Y0090120D02*
X0197215Y0090120D01*
X0197403Y0090309D02*
X0196138Y0089043D01*
X0195452Y0087389D01*
X0195452Y0085599D01*
X0196138Y0083945D01*
X0197403Y0082679D01*
X0199057Y0081994D01*
X0200848Y0081994D01*
X0202502Y0082679D01*
X0203767Y0083945D01*
X0204452Y0085599D01*
X0204452Y0087389D01*
X0203767Y0089043D01*
X0202502Y0090309D01*
X0200848Y0090994D01*
X0199057Y0090994D01*
X0197403Y0090309D01*
X0196216Y0089122D02*
X0193689Y0089122D01*
X0194148Y0088123D02*
X0195757Y0088123D01*
X0195452Y0087125D02*
X0194452Y0087125D01*
X0194452Y0086126D02*
X0195452Y0086126D01*
X0195648Y0085128D02*
X0194257Y0085128D01*
X0193844Y0084129D02*
X0196061Y0084129D01*
X0196952Y0083131D02*
X0192953Y0083131D01*
X0191181Y0082132D02*
X0198723Y0082132D01*
X0199057Y0080994D02*
X0197403Y0080309D01*
X0196138Y0079043D01*
X0195452Y0077389D01*
X0195452Y0075599D01*
X0196138Y0073945D01*
X0197403Y0072679D01*
X0199057Y0071994D01*
X0200848Y0071994D01*
X0202502Y0072679D01*
X0203767Y0073945D01*
X0204452Y0075599D01*
X0204452Y0077389D01*
X0203767Y0079043D01*
X0202502Y0080309D01*
X0200848Y0080994D01*
X0199057Y0080994D01*
X0197230Y0080135D02*
X0192675Y0080135D01*
X0192502Y0080309D02*
X0190848Y0080994D01*
X0189057Y0080994D01*
X0187403Y0080309D01*
X0186138Y0079043D01*
X0185910Y0078494D01*
X0184461Y0078494D01*
X0184241Y0079024D01*
X0183482Y0079783D01*
X0182490Y0080194D01*
X0181415Y0080194D01*
X0180423Y0079783D01*
X0179664Y0079024D01*
X0179252Y0078031D01*
X0179252Y0076957D01*
X0179664Y0075965D01*
X0180423Y0075205D01*
X0181415Y0074794D01*
X0181824Y0074794D01*
X0182124Y0074494D01*
X0185910Y0074494D01*
X0186117Y0073994D01*
X0129124Y0073994D01*
X0127824Y0072694D01*
X0127415Y0072694D01*
X0126423Y0072283D01*
X0125664Y0071524D01*
X0125252Y0070531D01*
X0125252Y0069457D01*
X0125664Y0068465D01*
X0126423Y0067705D01*
X0127415Y0067294D01*
X0128490Y0067294D01*
X0129482Y0067705D01*
X0130241Y0068465D01*
X0130652Y0069457D01*
X0130652Y0069866D01*
X0130781Y0069994D01*
X0187089Y0069994D01*
X0186138Y0069043D01*
X0185452Y0067389D01*
X0185452Y0065599D01*
X0186138Y0063945D01*
X0186589Y0063494D01*
X0139771Y0063494D01*
X0139482Y0063783D01*
X0138490Y0064194D01*
X0137415Y0064194D01*
X0136423Y0063783D01*
X0135664Y0063024D01*
X0135252Y0062031D01*
X0135252Y0060957D01*
X0135664Y0059965D01*
X0136423Y0059205D01*
X0137415Y0058794D01*
X0138490Y0058794D01*
X0139482Y0059205D01*
X0139771Y0059494D01*
X0186589Y0059494D01*
X0186138Y0059043D01*
X0185910Y0058494D01*
X0125472Y0058494D01*
X0124990Y0058694D01*
X0123915Y0058694D01*
X0122923Y0058283D01*
X0122164Y0057524D01*
X0121752Y0056531D01*
X0121752Y0055457D01*
X0122164Y0054465D01*
X0122923Y0053705D01*
X0123915Y0053294D01*
X0124990Y0053294D01*
X0125982Y0053705D01*
X0126741Y0054465D01*
X0126754Y0054494D01*
X0185910Y0054494D01*
X0186138Y0053945D01*
X0187403Y0052679D01*
X0189057Y0051994D01*
X0190848Y0051994D01*
X0192502Y0052679D01*
X0193767Y0053945D01*
X0194452Y0055599D01*
X0194452Y0057389D01*
X0193767Y0059043D01*
X0193316Y0059494D01*
X0194124Y0059494D01*
X0195680Y0057938D01*
X0195452Y0057389D01*
X0195452Y0055599D01*
X0196138Y0053945D01*
X0197403Y0052679D01*
X0199057Y0051994D01*
X0200848Y0051994D01*
X0202502Y0052679D01*
X0203767Y0053945D01*
X0204452Y0055599D01*
X0204452Y0057389D01*
X0203767Y0059043D01*
X0202502Y0060309D01*
X0200848Y0060994D01*
X0199057Y0060994D01*
X0198508Y0060767D01*
X0196952Y0062323D01*
X0195781Y0063494D01*
X0193316Y0063494D01*
X0193767Y0063945D01*
X0194452Y0065599D01*
X0194452Y0067389D01*
X0193767Y0069043D01*
X0192816Y0069994D01*
X0193624Y0069994D01*
X0195680Y0067938D01*
X0195452Y0067389D01*
X0195452Y0065599D01*
X0196138Y0063945D01*
X0197403Y0062679D01*
X0199057Y0061994D01*
X0200848Y0061994D01*
X0202502Y0062679D01*
X0203767Y0063945D01*
X0204452Y0065599D01*
X0204452Y0067389D01*
X0203767Y0069043D01*
X0202502Y0070309D01*
X0200848Y0070994D01*
X0199057Y0070994D01*
X0198508Y0070767D01*
X0196452Y0072823D01*
X0195281Y0073994D01*
X0193788Y0073994D01*
X0194452Y0075599D01*
X0194452Y0077389D01*
X0193767Y0079043D01*
X0192502Y0080309D01*
X0193674Y0079137D02*
X0196231Y0079137D01*
X0195763Y0078138D02*
X0194142Y0078138D01*
X0194452Y0077140D02*
X0195452Y0077140D01*
X0195452Y0076141D02*
X0194452Y0076141D01*
X0194263Y0075143D02*
X0195641Y0075143D01*
X0196055Y0074144D02*
X0193850Y0074144D01*
X0194452Y0071994D02*
X0129952Y0071994D01*
X0127952Y0069994D01*
X0125975Y0068153D02*
X0064136Y0068153D01*
X0064452Y0067389D02*
X0063767Y0069043D01*
X0062502Y0070309D01*
X0060848Y0070994D01*
X0059057Y0070994D01*
X0057403Y0070309D01*
X0056138Y0069043D01*
X0055452Y0067389D01*
X0055452Y0065599D01*
X0056138Y0063945D01*
X0057403Y0062679D01*
X0059057Y0061994D01*
X0060848Y0061994D01*
X0062502Y0062679D01*
X0063767Y0063945D01*
X0064452Y0065599D01*
X0064452Y0067389D01*
X0064452Y0067155D02*
X0185452Y0067155D01*
X0185452Y0066156D02*
X0064452Y0066156D01*
X0064270Y0065158D02*
X0185635Y0065158D01*
X0186049Y0064159D02*
X0138574Y0064159D01*
X0137331Y0064159D02*
X0063856Y0064159D01*
X0062983Y0063161D02*
X0135801Y0063161D01*
X0135307Y0062162D02*
X0061253Y0062162D01*
X0062645Y0060165D02*
X0135580Y0060165D01*
X0135252Y0061164D02*
X0032389Y0061164D01*
X0032652Y0060165D02*
X0047260Y0060165D01*
X0046261Y0059167D02*
X0032652Y0059167D01*
X0032532Y0058168D02*
X0045775Y0058168D01*
X0045452Y0057170D02*
X0032605Y0057170D01*
X0033604Y0056171D02*
X0045452Y0056171D01*
X0045629Y0055173D02*
X0034602Y0055173D01*
X0035601Y0054174D02*
X0046043Y0054174D01*
X0046276Y0049182D02*
X0032652Y0049182D01*
X0032652Y0050180D02*
X0033938Y0050180D01*
X0032940Y0051179D02*
X0032383Y0051179D01*
X0032538Y0048183D02*
X0045781Y0048183D01*
X0045452Y0047184D02*
X0032124Y0047184D01*
X0031498Y0046186D02*
X0045452Y0046186D01*
X0045623Y0045187D02*
X0030500Y0045187D01*
X0029706Y0044189D02*
X0046036Y0044189D01*
X0046892Y0043190D02*
X0031110Y0043190D01*
X0031963Y0042192D02*
X0048580Y0042192D01*
X0049057Y0040994D02*
X0047403Y0040309D01*
X0046138Y0039043D01*
X0045452Y0037389D01*
X0045452Y0035599D01*
X0046138Y0033945D01*
X0047403Y0032679D01*
X0049057Y0031994D01*
X0050848Y0031994D01*
X0052502Y0032679D01*
X0053767Y0033945D01*
X0054452Y0035599D01*
X0054452Y0037389D01*
X0053767Y0039043D01*
X0052502Y0040309D01*
X0050848Y0040994D01*
X0049057Y0040994D01*
X0047289Y0040195D02*
X0032652Y0040195D01*
X0032652Y0039196D02*
X0046291Y0039196D01*
X0045787Y0038198D02*
X0032544Y0038198D01*
X0032130Y0037199D02*
X0045452Y0037199D01*
X0045452Y0036201D02*
X0031513Y0036201D01*
X0030515Y0035202D02*
X0045617Y0035202D01*
X0046030Y0034204D02*
X0029670Y0034204D01*
X0031095Y0033205D02*
X0046877Y0033205D01*
X0048544Y0032207D02*
X0031957Y0032207D01*
X0032371Y0031208D02*
X0164410Y0031208D01*
X0165408Y0030210D02*
X0062601Y0030210D01*
X0062502Y0030309D02*
X0060848Y0030994D01*
X0059057Y0030994D01*
X0057403Y0030309D01*
X0056138Y0029043D01*
X0055452Y0027389D01*
X0055452Y0025599D01*
X0056138Y0023945D01*
X0057403Y0022679D01*
X0059057Y0021994D01*
X0060848Y0021994D01*
X0062502Y0022679D01*
X0063767Y0023945D01*
X0064452Y0025599D01*
X0064452Y0027389D01*
X0063767Y0029043D01*
X0062502Y0030309D01*
X0063599Y0029211D02*
X0186306Y0029211D01*
X0185794Y0028213D02*
X0064111Y0028213D01*
X0064452Y0027214D02*
X0185452Y0027214D01*
X0185452Y0026216D02*
X0064452Y0026216D01*
X0064294Y0025217D02*
X0185611Y0025217D01*
X0186024Y0024219D02*
X0063881Y0024219D01*
X0063043Y0023220D02*
X0114325Y0023220D01*
X0113326Y0022222D02*
X0061397Y0022222D01*
X0060848Y0020994D02*
X0059057Y0020994D01*
X0057403Y0020309D01*
X0056138Y0019043D01*
X0055452Y0017389D01*
X0055452Y0015599D01*
X0056138Y0013945D01*
X0057403Y0012679D01*
X0059057Y0011994D01*
X0060848Y0011994D01*
X0062502Y0012679D01*
X0063767Y0013945D01*
X0064452Y0015599D01*
X0064452Y0017389D01*
X0063767Y0019043D01*
X0062502Y0020309D01*
X0060848Y0020994D01*
X0062586Y0020225D02*
X0112252Y0020225D01*
X0112252Y0019226D02*
X0063584Y0019226D01*
X0064105Y0018228D02*
X0112252Y0018228D01*
X0112252Y0017229D02*
X0064452Y0017229D01*
X0064452Y0016231D02*
X0112862Y0016231D01*
X0113861Y0015232D02*
X0064300Y0015232D01*
X0063887Y0014234D02*
X0114859Y0014234D01*
X0114340Y0013235D02*
X0063057Y0013235D01*
X0061433Y0012237D02*
X0113341Y0012237D01*
X0112343Y0011238D02*
X0041081Y0011238D01*
X0042080Y0010240D02*
X0047452Y0010240D01*
X0047594Y0010343D02*
X0047021Y0009926D01*
X0046520Y0009426D01*
X0046104Y0008853D01*
X0045782Y0008221D01*
X0045563Y0007548D01*
X0045476Y0006994D01*
X0049452Y0006994D01*
X0049452Y0010971D01*
X0048899Y0010883D01*
X0048225Y0010664D01*
X0047594Y0010343D01*
X0046386Y0009241D02*
X0043078Y0009241D01*
X0044077Y0008243D02*
X0045793Y0008243D01*
X0045515Y0007244D02*
X0045075Y0007244D01*
X0044826Y0003250D02*
X0037582Y0010494D01*
X0028763Y0010494D01*
X0027249Y0014234D02*
X0046018Y0014234D01*
X0046138Y0013945D02*
X0047403Y0012679D01*
X0049057Y0011994D01*
X0050848Y0011994D01*
X0052502Y0012679D01*
X0053767Y0013945D01*
X0054452Y0015599D01*
X0054452Y0017389D01*
X0053767Y0019043D01*
X0052502Y0020309D01*
X0050848Y0020994D01*
X0049057Y0020994D01*
X0047403Y0020309D01*
X0046138Y0019043D01*
X0045452Y0017389D01*
X0045452Y0015599D01*
X0046138Y0013945D01*
X0046847Y0013235D02*
X0038804Y0013235D01*
X0040083Y0012237D02*
X0048472Y0012237D01*
X0049452Y0010240D02*
X0050452Y0010240D01*
X0050452Y0009241D02*
X0049452Y0009241D01*
X0049452Y0008243D02*
X0050452Y0008243D01*
X0050452Y0007244D02*
X0049452Y0007244D01*
X0052453Y0010240D02*
X0057334Y0010240D01*
X0056335Y0009241D02*
X0053519Y0009241D01*
X0054112Y0008243D02*
X0055806Y0008243D01*
X0055452Y0007244D02*
X0054390Y0007244D01*
X0051433Y0012237D02*
X0058472Y0012237D01*
X0056847Y0013235D02*
X0053057Y0013235D01*
X0053887Y0014234D02*
X0056018Y0014234D01*
X0055604Y0015232D02*
X0054300Y0015232D01*
X0054452Y0016231D02*
X0055452Y0016231D01*
X0055452Y0017229D02*
X0054452Y0017229D01*
X0054105Y0018228D02*
X0055800Y0018228D01*
X0056321Y0019226D02*
X0053584Y0019226D01*
X0052586Y0020225D02*
X0057319Y0020225D01*
X0058508Y0022222D02*
X0051397Y0022222D01*
X0050848Y0021994D02*
X0052502Y0022679D01*
X0053767Y0023945D01*
X0054452Y0025599D01*
X0054452Y0027389D01*
X0053767Y0029043D01*
X0052502Y0030309D01*
X0050848Y0030994D01*
X0049057Y0030994D01*
X0047403Y0030309D01*
X0046138Y0029043D01*
X0045452Y0027389D01*
X0045452Y0025599D01*
X0046138Y0023945D01*
X0047403Y0022679D01*
X0049057Y0021994D01*
X0050848Y0021994D01*
X0048508Y0022222D02*
X0031951Y0022222D01*
X0032365Y0021223D02*
X0112328Y0021223D01*
X0120580Y0023220D02*
X0124325Y0023220D01*
X0123326Y0022222D02*
X0121579Y0022222D01*
X0122452Y0016640D02*
X0125099Y0013994D01*
X0122452Y0011348D01*
X0119806Y0013994D01*
X0122452Y0016640D01*
X0122043Y0016231D02*
X0122862Y0016231D01*
X0123861Y0015232D02*
X0121044Y0015232D01*
X0120046Y0014234D02*
X0124859Y0014234D01*
X0124340Y0013235D02*
X0120565Y0013235D01*
X0121564Y0012237D02*
X0123341Y0012237D01*
X0122452Y0006640D02*
X0122843Y0006250D01*
X0122062Y0006250D01*
X0122452Y0006640D01*
X0116952Y0009241D02*
X0063569Y0009241D01*
X0064099Y0008243D02*
X0112252Y0008243D01*
X0112252Y0007244D02*
X0064452Y0007244D01*
X0062571Y0010240D02*
X0112252Y0010240D01*
X0129806Y0013994D02*
X0132452Y0016640D01*
X0135099Y0013994D01*
X0132452Y0011348D01*
X0129806Y0013994D01*
X0130046Y0014234D02*
X0134859Y0014234D01*
X0134340Y0013235D02*
X0130565Y0013235D01*
X0131564Y0012237D02*
X0133341Y0012237D01*
X0133861Y0015232D02*
X0131044Y0015232D01*
X0132043Y0016231D02*
X0132862Y0016231D01*
X0133326Y0022222D02*
X0131579Y0022222D01*
X0130580Y0023220D02*
X0134325Y0023220D01*
X0140580Y0023220D02*
X0186862Y0023220D01*
X0188508Y0022222D02*
X0141579Y0022222D01*
X0142577Y0021223D02*
X0212540Y0021223D01*
X0212252Y0020225D02*
X0202586Y0020225D01*
X0202502Y0020309D02*
X0200848Y0020994D01*
X0199057Y0020994D01*
X0197403Y0020309D01*
X0196138Y0019043D01*
X0195452Y0017389D01*
X0195452Y0015599D01*
X0196138Y0013945D01*
X0197403Y0012679D01*
X0199057Y0011994D01*
X0200848Y0011994D01*
X0202502Y0012679D01*
X0203767Y0013945D01*
X0204452Y0015599D01*
X0204452Y0017389D01*
X0203767Y0019043D01*
X0202502Y0020309D01*
X0203584Y0019226D02*
X0212252Y0019226D01*
X0212349Y0018228D02*
X0204105Y0018228D01*
X0204452Y0017229D02*
X0212762Y0017229D01*
X0213362Y0016231D02*
X0204452Y0016231D01*
X0204300Y0015232D02*
X0214360Y0015232D01*
X0217964Y0014234D02*
X0203887Y0014234D01*
X0203057Y0013235D02*
X0217964Y0013235D01*
X0217964Y0012237D02*
X0201433Y0012237D01*
X0200452Y0010240D02*
X0199452Y0010240D01*
X0199452Y0010971D02*
X0198899Y0010883D01*
X0198225Y0010664D01*
X0197594Y0010343D01*
X0197021Y0009926D01*
X0196520Y0009426D01*
X0196104Y0008853D01*
X0195782Y0008221D01*
X0195563Y0007548D01*
X0195476Y0006994D01*
X0199452Y0006994D01*
X0199452Y0010971D01*
X0198472Y0012237D02*
X0191433Y0012237D01*
X0190848Y0011994D02*
X0192502Y0012679D01*
X0193767Y0013945D01*
X0194452Y0015599D01*
X0194452Y0017389D01*
X0193767Y0019043D01*
X0192502Y0020309D01*
X0190848Y0020994D01*
X0189057Y0020994D01*
X0187403Y0020309D01*
X0186138Y0019043D01*
X0185452Y0017389D01*
X0185452Y0015599D01*
X0186138Y0013945D01*
X0187403Y0012679D01*
X0189057Y0011994D01*
X0190848Y0011994D01*
X0189452Y0010971D02*
X0188899Y0010883D01*
X0188225Y0010664D01*
X0187594Y0010343D01*
X0187021Y0009926D01*
X0186520Y0009426D01*
X0186104Y0008853D01*
X0185782Y0008221D01*
X0185563Y0007548D01*
X0185476Y0006994D01*
X0189452Y0006994D01*
X0189452Y0010971D01*
X0189452Y0010240D02*
X0190452Y0010240D01*
X0190452Y0009241D02*
X0189452Y0009241D01*
X0189452Y0008243D02*
X0190452Y0008243D01*
X0190452Y0007244D02*
X0189452Y0007244D01*
X0187452Y0010240D02*
X0142652Y0010240D01*
X0142652Y0009241D02*
X0186386Y0009241D01*
X0185793Y0008243D02*
X0142652Y0008243D01*
X0142652Y0007244D02*
X0185515Y0007244D01*
X0188472Y0012237D02*
X0141564Y0012237D01*
X0140565Y0013235D02*
X0186847Y0013235D01*
X0186018Y0014234D02*
X0140046Y0014234D01*
X0141044Y0015232D02*
X0185604Y0015232D01*
X0185452Y0016231D02*
X0142043Y0016231D01*
X0142652Y0017229D02*
X0185452Y0017229D01*
X0185800Y0018228D02*
X0142652Y0018228D01*
X0142652Y0019226D02*
X0186321Y0019226D01*
X0187319Y0020225D02*
X0142652Y0020225D01*
X0142562Y0011238D02*
X0217964Y0011238D01*
X0217956Y0010240D02*
X0202453Y0010240D01*
X0203519Y0009241D02*
X0216967Y0009241D01*
X0215978Y0008243D02*
X0204112Y0008243D01*
X0204390Y0007244D02*
X0214989Y0007244D01*
X0215256Y0003250D02*
X0044826Y0003250D01*
X0045604Y0015232D02*
X0030544Y0015232D01*
X0031543Y0016231D02*
X0045452Y0016231D01*
X0045452Y0017229D02*
X0032143Y0017229D01*
X0032556Y0018228D02*
X0045800Y0018228D01*
X0046321Y0019226D02*
X0032652Y0019226D01*
X0032652Y0020225D02*
X0047319Y0020225D01*
X0046862Y0023220D02*
X0031080Y0023220D01*
X0029634Y0024219D02*
X0046024Y0024219D01*
X0045611Y0025217D02*
X0030530Y0025217D01*
X0031528Y0026216D02*
X0045452Y0026216D01*
X0045452Y0027214D02*
X0032137Y0027214D01*
X0032550Y0028213D02*
X0045794Y0028213D01*
X0046306Y0029211D02*
X0032652Y0029211D01*
X0032652Y0030210D02*
X0047304Y0030210D01*
X0051361Y0032207D02*
X0058544Y0032207D01*
X0059057Y0031994D02*
X0060848Y0031994D01*
X0062502Y0032679D01*
X0063767Y0033945D01*
X0064452Y0035599D01*
X0064452Y0037389D01*
X0063767Y0039043D01*
X0062502Y0040309D01*
X0060848Y0040994D01*
X0059057Y0040994D01*
X0057403Y0040309D01*
X0056138Y0039043D01*
X0055452Y0037389D01*
X0055452Y0035599D01*
X0056138Y0033945D01*
X0057403Y0032679D01*
X0059057Y0031994D01*
X0061361Y0032207D02*
X0162421Y0032207D01*
X0161857Y0033205D02*
X0063028Y0033205D01*
X0063875Y0034204D02*
X0161752Y0034204D01*
X0162030Y0035202D02*
X0064288Y0035202D01*
X0064452Y0036201D02*
X0162841Y0036201D01*
X0164452Y0033994D02*
X0166452Y0031994D01*
X0214952Y0031994D01*
X0217452Y0029494D01*
X0215235Y0034204D02*
X0203875Y0034204D01*
X0204288Y0035202D02*
X0214390Y0035202D01*
X0213392Y0036201D02*
X0204452Y0036201D01*
X0204452Y0037199D02*
X0212775Y0037199D01*
X0209420Y0038198D02*
X0204117Y0038198D01*
X0203614Y0039196D02*
X0208422Y0039196D01*
X0207423Y0040195D02*
X0202616Y0040195D01*
X0201325Y0042192D02*
X0205426Y0042192D01*
X0204952Y0043190D02*
X0203013Y0043190D01*
X0202502Y0042679D02*
X0203767Y0043945D01*
X0204452Y0045599D01*
X0204452Y0047389D01*
X0203767Y0049043D01*
X0202502Y0050309D01*
X0200848Y0050994D01*
X0199057Y0050994D01*
X0197403Y0050309D01*
X0196138Y0049043D01*
X0195452Y0047389D01*
X0195452Y0045599D01*
X0196138Y0043945D01*
X0197403Y0042679D01*
X0199057Y0041994D01*
X0200848Y0041994D01*
X0202502Y0042679D01*
X0203868Y0044189D02*
X0204952Y0044189D01*
X0204952Y0045187D02*
X0204282Y0045187D01*
X0204452Y0046186D02*
X0204952Y0046186D01*
X0204952Y0047184D02*
X0204452Y0047184D01*
X0204124Y0048183D02*
X0204952Y0048183D01*
X0204952Y0049182D02*
X0203629Y0049182D01*
X0202630Y0050180D02*
X0204952Y0050180D01*
X0204952Y0051179D02*
X0185652Y0051179D01*
X0185538Y0050180D02*
X0187274Y0050180D01*
X0187403Y0050309D02*
X0186138Y0049043D01*
X0185452Y0047389D01*
X0185452Y0045599D01*
X0186138Y0043945D01*
X0187403Y0042679D01*
X0189057Y0041994D01*
X0190848Y0041994D01*
X0192502Y0042679D01*
X0193767Y0043945D01*
X0194452Y0045599D01*
X0194452Y0047389D01*
X0193767Y0049043D01*
X0192502Y0050309D01*
X0190848Y0050994D01*
X0189057Y0050994D01*
X0187403Y0050309D01*
X0186276Y0049182D02*
X0184958Y0049182D01*
X0185781Y0048183D02*
X0076943Y0048183D01*
X0077314Y0047184D02*
X0185452Y0047184D01*
X0185452Y0046186D02*
X0077303Y0046186D01*
X0076870Y0045187D02*
X0185623Y0045187D01*
X0186036Y0044189D02*
X0075486Y0044189D01*
X0073741Y0044189D02*
X0063868Y0044189D01*
X0064282Y0045187D02*
X0067348Y0045187D01*
X0066349Y0046186D02*
X0064452Y0046186D01*
X0064452Y0047184D02*
X0065351Y0047184D01*
X0064352Y0048183D02*
X0064124Y0048183D01*
X0064114Y0051250D02*
X0035697Y0051250D01*
X0027452Y0059494D01*
X0029432Y0054686D02*
X0028970Y0054494D01*
X0030087Y0054031D01*
X0029432Y0054686D01*
X0029742Y0054174D02*
X0029944Y0054174D01*
X0031976Y0062162D02*
X0048652Y0062162D01*
X0049057Y0061994D02*
X0050848Y0061994D01*
X0052502Y0062679D01*
X0053767Y0063945D01*
X0054452Y0065599D01*
X0054452Y0067389D01*
X0053767Y0069043D01*
X0052502Y0070309D01*
X0050848Y0070994D01*
X0049057Y0070994D01*
X0047403Y0070309D01*
X0046138Y0069043D01*
X0045452Y0067389D01*
X0045452Y0065599D01*
X0046138Y0063945D01*
X0047403Y0062679D01*
X0049057Y0061994D01*
X0051253Y0062162D02*
X0058652Y0062162D01*
X0056922Y0063161D02*
X0052983Y0063161D01*
X0053856Y0064159D02*
X0056049Y0064159D01*
X0055635Y0065158D02*
X0054270Y0065158D01*
X0054452Y0066156D02*
X0055452Y0066156D01*
X0055452Y0067155D02*
X0054452Y0067155D01*
X0054136Y0068153D02*
X0055769Y0068153D01*
X0056246Y0069152D02*
X0053659Y0069152D01*
X0052660Y0070150D02*
X0057245Y0070150D01*
X0058688Y0072147D02*
X0051217Y0072147D01*
X0050848Y0071994D02*
X0052502Y0072679D01*
X0053767Y0073945D01*
X0054452Y0075599D01*
X0054452Y0077389D01*
X0053767Y0079043D01*
X0052502Y0080309D01*
X0050848Y0080994D01*
X0049057Y0080994D01*
X0047403Y0080309D01*
X0046138Y0079043D01*
X0045452Y0077389D01*
X0045452Y0075599D01*
X0046138Y0073945D01*
X0047403Y0072679D01*
X0049057Y0071994D01*
X0050848Y0071994D01*
X0048688Y0072147D02*
X0039952Y0072147D01*
X0039952Y0073146D02*
X0046937Y0073146D01*
X0046055Y0074144D02*
X0039952Y0074144D01*
X0039952Y0075143D02*
X0045641Y0075143D01*
X0045452Y0076141D02*
X0039952Y0076141D01*
X0039952Y0077140D02*
X0045452Y0077140D01*
X0045763Y0078138D02*
X0039952Y0078138D01*
X0039952Y0079137D02*
X0046231Y0079137D01*
X0047230Y0080135D02*
X0039952Y0080135D01*
X0039952Y0081134D02*
X0204952Y0081134D01*
X0204952Y0082132D02*
X0201181Y0082132D01*
X0202953Y0083131D02*
X0204952Y0083131D01*
X0204952Y0084129D02*
X0203844Y0084129D01*
X0204257Y0085128D02*
X0204952Y0085128D01*
X0204952Y0086126D02*
X0204452Y0086126D01*
X0204452Y0087125D02*
X0204952Y0087125D01*
X0204952Y0088123D02*
X0204148Y0088123D01*
X0203689Y0089122D02*
X0204952Y0089122D01*
X0204952Y0090120D02*
X0202690Y0090120D01*
X0204952Y0091119D02*
X0039952Y0091119D01*
X0039952Y0092118D02*
X0048759Y0092118D01*
X0049057Y0090994D02*
X0047403Y0090309D01*
X0046138Y0089043D01*
X0045452Y0087389D01*
X0045452Y0085599D01*
X0046138Y0083945D01*
X0047403Y0082679D01*
X0049057Y0081994D01*
X0050848Y0081994D01*
X0052502Y0082679D01*
X0053767Y0083945D01*
X0054452Y0085599D01*
X0054452Y0087389D01*
X0053767Y0089043D01*
X0052502Y0090309D01*
X0050848Y0090994D01*
X0049057Y0090994D01*
X0047215Y0090120D02*
X0039952Y0090120D01*
X0039952Y0089122D02*
X0046216Y0089122D01*
X0045757Y0088123D02*
X0039952Y0088123D01*
X0039952Y0087125D02*
X0045452Y0087125D01*
X0045452Y0086126D02*
X0039952Y0086126D01*
X0039952Y0085128D02*
X0045648Y0085128D01*
X0046061Y0084129D02*
X0039952Y0084129D01*
X0039952Y0083131D02*
X0046952Y0083131D01*
X0048723Y0082132D02*
X0039952Y0082132D01*
X0035952Y0082132D02*
X0027114Y0082132D01*
X0027114Y0081134D02*
X0035952Y0081134D01*
X0035952Y0080135D02*
X0027114Y0080135D01*
X0027114Y0079137D02*
X0035952Y0079137D01*
X0035952Y0078138D02*
X0027114Y0078138D01*
X0027114Y0077140D02*
X0035952Y0077140D01*
X0035952Y0076141D02*
X0027114Y0076141D01*
X0027114Y0075143D02*
X0035952Y0075143D01*
X0035952Y0074144D02*
X0029814Y0074144D01*
X0030398Y0073902D02*
X0028487Y0074694D01*
X0027114Y0074694D01*
X0027114Y0084294D01*
X0028487Y0084294D01*
X0030398Y0085086D01*
X0031861Y0086549D01*
X0032286Y0087575D01*
X0035405Y0090694D01*
X0035952Y0091241D01*
X0035952Y0073323D01*
X0034124Y0071494D01*
X0032252Y0071494D01*
X0031861Y0072440D01*
X0030398Y0073902D01*
X0031155Y0073146D02*
X0035776Y0073146D01*
X0034777Y0072147D02*
X0031982Y0072147D01*
X0034952Y0069494D02*
X0037952Y0072494D01*
X0037952Y0094494D01*
X0039952Y0093116D02*
X0046967Y0093116D01*
X0046067Y0094115D02*
X0040401Y0094115D01*
X0041400Y0095113D02*
X0045654Y0095113D01*
X0045452Y0096112D02*
X0042398Y0096112D01*
X0043397Y0097110D02*
X0045452Y0097110D01*
X0045750Y0098109D02*
X0044395Y0098109D01*
X0045394Y0099107D02*
X0046202Y0099107D01*
X0046392Y0100106D02*
X0047200Y0100106D01*
X0052705Y0100106D02*
X0057200Y0100106D01*
X0056202Y0099107D02*
X0053703Y0099107D01*
X0054154Y0098109D02*
X0055750Y0098109D01*
X0055452Y0097110D02*
X0054452Y0097110D01*
X0054452Y0096112D02*
X0055452Y0096112D01*
X0055654Y0095113D02*
X0054251Y0095113D01*
X0053838Y0094115D02*
X0056067Y0094115D01*
X0056967Y0093116D02*
X0052938Y0093116D01*
X0051146Y0092118D02*
X0058759Y0092118D01*
X0059057Y0090994D02*
X0057403Y0090309D01*
X0056138Y0089043D01*
X0055452Y0087389D01*
X0055452Y0085599D01*
X0056138Y0083945D01*
X0057403Y0082679D01*
X0059057Y0081994D01*
X0060848Y0081994D01*
X0062502Y0082679D01*
X0063767Y0083945D01*
X0064452Y0085599D01*
X0064452Y0087389D01*
X0063767Y0089043D01*
X0062502Y0090309D01*
X0060848Y0090994D01*
X0059057Y0090994D01*
X0057215Y0090120D02*
X0052690Y0090120D01*
X0053689Y0089122D02*
X0056216Y0089122D01*
X0055757Y0088123D02*
X0054148Y0088123D01*
X0054452Y0087125D02*
X0055452Y0087125D01*
X0055452Y0086126D02*
X0054452Y0086126D01*
X0054257Y0085128D02*
X0055648Y0085128D01*
X0056061Y0084129D02*
X0053844Y0084129D01*
X0052953Y0083131D02*
X0056952Y0083131D01*
X0058723Y0082132D02*
X0051181Y0082132D01*
X0052675Y0080135D02*
X0057230Y0080135D01*
X0057403Y0080309D02*
X0056138Y0079043D01*
X0055452Y0077389D01*
X0055452Y0075599D01*
X0056138Y0073945D01*
X0057403Y0072679D01*
X0059057Y0071994D01*
X0060848Y0071994D01*
X0062502Y0072679D01*
X0063767Y0073945D01*
X0064452Y0075599D01*
X0064452Y0077389D01*
X0063767Y0079043D01*
X0062502Y0080309D01*
X0060848Y0080994D01*
X0059057Y0080994D01*
X0057403Y0080309D01*
X0056231Y0079137D02*
X0053674Y0079137D01*
X0054142Y0078138D02*
X0055763Y0078138D01*
X0055452Y0077140D02*
X0054452Y0077140D01*
X0054452Y0076141D02*
X0055452Y0076141D01*
X0055641Y0075143D02*
X0054263Y0075143D01*
X0053850Y0074144D02*
X0056055Y0074144D01*
X0056937Y0073146D02*
X0052968Y0073146D01*
X0047245Y0070150D02*
X0038437Y0070150D01*
X0037439Y0069152D02*
X0046246Y0069152D01*
X0045769Y0068153D02*
X0036440Y0068153D01*
X0034952Y0069494D02*
X0027452Y0069494D01*
X0032112Y0067155D02*
X0045452Y0067155D01*
X0045452Y0066156D02*
X0031468Y0066156D01*
X0030470Y0065158D02*
X0045635Y0065158D01*
X0046049Y0064159D02*
X0029778Y0064159D01*
X0031140Y0063161D02*
X0046922Y0063161D01*
X0052645Y0060165D02*
X0057260Y0060165D01*
X0056261Y0059167D02*
X0053644Y0059167D01*
X0054130Y0058168D02*
X0055775Y0058168D01*
X0055452Y0057170D02*
X0054452Y0057170D01*
X0054452Y0056171D02*
X0055452Y0056171D01*
X0055629Y0055173D02*
X0054276Y0055173D01*
X0053862Y0054174D02*
X0056043Y0054174D01*
X0056276Y0049182D02*
X0053629Y0049182D01*
X0054124Y0048183D02*
X0055781Y0048183D01*
X0055452Y0047184D02*
X0054452Y0047184D01*
X0054452Y0046186D02*
X0055452Y0046186D01*
X0055623Y0045187D02*
X0054282Y0045187D01*
X0053868Y0044189D02*
X0056036Y0044189D01*
X0056892Y0043190D02*
X0053013Y0043190D01*
X0051325Y0042192D02*
X0058580Y0042192D01*
X0057289Y0040195D02*
X0052616Y0040195D01*
X0053614Y0039196D02*
X0056291Y0039196D01*
X0055787Y0038198D02*
X0054117Y0038198D01*
X0054452Y0037199D02*
X0055452Y0037199D01*
X0055452Y0036201D02*
X0054452Y0036201D01*
X0054288Y0035202D02*
X0055617Y0035202D01*
X0056030Y0034204D02*
X0053875Y0034204D01*
X0053028Y0033205D02*
X0056877Y0033205D01*
X0057304Y0030210D02*
X0052601Y0030210D01*
X0053599Y0029211D02*
X0056306Y0029211D01*
X0055794Y0028213D02*
X0054111Y0028213D01*
X0054452Y0027214D02*
X0055452Y0027214D01*
X0055452Y0026216D02*
X0054452Y0026216D01*
X0054294Y0025217D02*
X0055611Y0025217D01*
X0056024Y0024219D02*
X0053881Y0024219D01*
X0053043Y0023220D02*
X0056862Y0023220D01*
X0064452Y0037199D02*
X0185452Y0037199D01*
X0185452Y0036201D02*
X0166064Y0036201D01*
X0166874Y0035202D02*
X0185617Y0035202D01*
X0186030Y0034204D02*
X0167152Y0034204D01*
X0185787Y0038198D02*
X0064117Y0038198D01*
X0063614Y0039196D02*
X0186291Y0039196D01*
X0187289Y0040195D02*
X0062616Y0040195D01*
X0061325Y0042192D02*
X0188580Y0042192D01*
X0186892Y0043190D02*
X0063013Y0043190D01*
X0068614Y0046750D02*
X0064114Y0051250D01*
X0066015Y0052177D02*
X0067520Y0052177D01*
X0067252Y0051179D02*
X0067014Y0051179D01*
X0068316Y0053176D02*
X0065017Y0053176D01*
X0063862Y0054174D02*
X0122454Y0054174D01*
X0121870Y0055173D02*
X0064276Y0055173D01*
X0064452Y0056171D02*
X0121752Y0056171D01*
X0122017Y0057170D02*
X0064452Y0057170D01*
X0064130Y0058168D02*
X0122808Y0058168D01*
X0124952Y0056494D02*
X0124452Y0055994D01*
X0124952Y0056494D02*
X0189952Y0056494D01*
X0194130Y0058168D02*
X0195450Y0058168D01*
X0195452Y0057170D02*
X0194452Y0057170D01*
X0194452Y0056171D02*
X0195452Y0056171D01*
X0195629Y0055173D02*
X0194276Y0055173D01*
X0193862Y0054174D02*
X0196043Y0054174D01*
X0196907Y0053176D02*
X0192998Y0053176D01*
X0191289Y0052177D02*
X0198616Y0052177D01*
X0197274Y0050180D02*
X0192630Y0050180D01*
X0193629Y0049182D02*
X0196276Y0049182D01*
X0195781Y0048183D02*
X0194124Y0048183D01*
X0194452Y0047184D02*
X0195452Y0047184D01*
X0195452Y0046186D02*
X0194452Y0046186D01*
X0194282Y0045187D02*
X0195623Y0045187D01*
X0196036Y0044189D02*
X0193868Y0044189D01*
X0193013Y0043190D02*
X0196892Y0043190D01*
X0198580Y0042192D02*
X0191325Y0042192D01*
X0192616Y0040195D02*
X0197289Y0040195D01*
X0196291Y0039196D02*
X0193614Y0039196D01*
X0194117Y0038198D02*
X0195787Y0038198D01*
X0195452Y0037199D02*
X0194452Y0037199D01*
X0194452Y0036201D02*
X0195452Y0036201D01*
X0195617Y0035202D02*
X0194288Y0035202D01*
X0193875Y0034204D02*
X0196030Y0034204D01*
X0196306Y0029211D02*
X0193599Y0029211D01*
X0194111Y0028213D02*
X0195794Y0028213D01*
X0195452Y0027214D02*
X0194452Y0027214D01*
X0194452Y0026216D02*
X0195452Y0026216D01*
X0195611Y0025217D02*
X0194294Y0025217D01*
X0193881Y0024219D02*
X0196024Y0024219D01*
X0196862Y0023220D02*
X0193043Y0023220D01*
X0191397Y0022222D02*
X0198508Y0022222D01*
X0197319Y0020225D02*
X0192586Y0020225D01*
X0193584Y0019226D02*
X0196321Y0019226D01*
X0195800Y0018228D02*
X0194105Y0018228D01*
X0194452Y0017229D02*
X0195452Y0017229D01*
X0195452Y0016231D02*
X0194452Y0016231D01*
X0194300Y0015232D02*
X0195604Y0015232D01*
X0196018Y0014234D02*
X0193887Y0014234D01*
X0193057Y0013235D02*
X0196847Y0013235D01*
X0197452Y0010240D02*
X0192453Y0010240D01*
X0193519Y0009241D02*
X0196386Y0009241D01*
X0195793Y0008243D02*
X0194112Y0008243D01*
X0194390Y0007244D02*
X0195515Y0007244D01*
X0199452Y0007244D02*
X0200452Y0007244D01*
X0200452Y0008243D02*
X0199452Y0008243D01*
X0199452Y0009241D02*
X0200452Y0009241D01*
X0201397Y0022222D02*
X0212954Y0022222D01*
X0213825Y0023220D02*
X0203043Y0023220D01*
X0203881Y0024219D02*
X0215271Y0024219D01*
X0214375Y0025217D02*
X0204294Y0025217D01*
X0204452Y0026216D02*
X0213377Y0026216D01*
X0212768Y0027214D02*
X0204452Y0027214D01*
X0204111Y0028213D02*
X0212355Y0028213D01*
X0212252Y0029211D02*
X0203599Y0029211D01*
X0206425Y0041193D02*
X0032377Y0041193D01*
X0024114Y0014431D02*
X0024126Y0014301D01*
X0024143Y0014172D01*
X0024164Y0014044D01*
X0024188Y0013916D01*
X0024216Y0013789D01*
X0024248Y0013663D01*
X0024284Y0013538D01*
X0024324Y0013414D01*
X0024367Y0013291D01*
X0024414Y0013170D01*
X0024465Y0013050D01*
X0024519Y0012931D01*
X0024577Y0012815D01*
X0024638Y0012700D01*
X0024703Y0012587D01*
X0024771Y0012476D01*
X0024843Y0012368D01*
X0024917Y0012261D01*
X0024995Y0012157D01*
X0025076Y0012055D01*
X0025160Y0011956D01*
X0025247Y0011859D01*
X0025337Y0011765D01*
X0025430Y0011673D01*
X0025525Y0011585D01*
X0025623Y0011499D01*
X0025724Y0011417D01*
X0025827Y0011337D01*
X0025932Y0011261D01*
X0026040Y0011188D01*
X0026150Y0011118D01*
X0026261Y0011051D01*
X0026375Y0010988D01*
X0026491Y0010929D01*
X0026608Y0010872D01*
X0026727Y0010820D01*
X0026848Y0010771D01*
X0026970Y0010726D01*
X0027093Y0010684D01*
X0027218Y0010646D01*
X0027343Y0010612D01*
X0027470Y0010582D01*
X0027597Y0010556D01*
X0027726Y0010533D01*
X0027854Y0010515D01*
X0027984Y0010500D01*
X0028113Y0010489D01*
X0028243Y0010482D01*
X0028373Y0010479D01*
X0028503Y0010480D01*
X0028633Y0010485D01*
X0028763Y0010494D01*
X0068614Y0046750D02*
X0074614Y0046750D01*
X0072795Y0048750D02*
X0073040Y0048994D01*
X0071771Y0048994D01*
X0071527Y0048750D01*
X0072795Y0048750D01*
X0069952Y0050994D02*
X0182952Y0050994D01*
X0185385Y0052177D02*
X0188616Y0052177D01*
X0186907Y0053176D02*
X0184589Y0053176D01*
X0186043Y0054174D02*
X0126451Y0054174D01*
X0136516Y0059167D02*
X0063644Y0059167D01*
X0071589Y0053176D02*
X0181316Y0053176D01*
X0186261Y0059167D02*
X0139389Y0059167D01*
X0137952Y0061494D02*
X0194952Y0061494D01*
X0199952Y0056494D01*
X0203862Y0054174D02*
X0204952Y0054174D01*
X0204952Y0053176D02*
X0202998Y0053176D01*
X0201289Y0052177D02*
X0204952Y0052177D01*
X0204952Y0055173D02*
X0204276Y0055173D01*
X0204452Y0056171D02*
X0204952Y0056171D01*
X0204952Y0057170D02*
X0204452Y0057170D01*
X0204130Y0058168D02*
X0204952Y0058168D01*
X0204952Y0059167D02*
X0203644Y0059167D01*
X0202645Y0060165D02*
X0204952Y0060165D01*
X0204952Y0061164D02*
X0198111Y0061164D01*
X0198652Y0062162D02*
X0197113Y0062162D01*
X0196922Y0063161D02*
X0196114Y0063161D01*
X0196049Y0064159D02*
X0193856Y0064159D01*
X0194270Y0065158D02*
X0195635Y0065158D01*
X0195452Y0066156D02*
X0194452Y0066156D01*
X0194452Y0067155D02*
X0195452Y0067155D01*
X0195465Y0068153D02*
X0194136Y0068153D01*
X0194466Y0069152D02*
X0193659Y0069152D01*
X0194452Y0071994D02*
X0199952Y0066494D01*
X0203856Y0064159D02*
X0204952Y0064159D01*
X0204952Y0063161D02*
X0202983Y0063161D01*
X0201253Y0062162D02*
X0204952Y0062162D01*
X0204952Y0065158D02*
X0204270Y0065158D01*
X0204452Y0066156D02*
X0204952Y0066156D01*
X0204952Y0067155D02*
X0204452Y0067155D01*
X0204136Y0068153D02*
X0204952Y0068153D01*
X0204952Y0069152D02*
X0203659Y0069152D01*
X0202660Y0070150D02*
X0204952Y0070150D01*
X0204952Y0071149D02*
X0198126Y0071149D01*
X0198688Y0072147D02*
X0197128Y0072147D01*
X0196937Y0073146D02*
X0196129Y0073146D01*
X0201217Y0072147D02*
X0204952Y0072147D01*
X0204952Y0073146D02*
X0202968Y0073146D01*
X0203850Y0074144D02*
X0204952Y0074144D01*
X0204952Y0075143D02*
X0204263Y0075143D01*
X0204452Y0076141D02*
X0204952Y0076141D01*
X0204952Y0077140D02*
X0204452Y0077140D01*
X0204142Y0078138D02*
X0204952Y0078138D01*
X0204952Y0079137D02*
X0203674Y0079137D01*
X0202675Y0080135D02*
X0204952Y0080135D01*
X0204952Y0092118D02*
X0201045Y0092118D01*
X0200452Y0092118D02*
X0199452Y0092118D01*
X0199452Y0093116D02*
X0200452Y0093116D01*
X0200452Y0094115D02*
X0199452Y0094115D01*
X0199452Y0095113D02*
X0200452Y0095113D01*
X0200453Y0096112D02*
X0204952Y0096112D01*
X0204952Y0097110D02*
X0204411Y0097110D01*
X0204159Y0098109D02*
X0204952Y0098109D01*
X0204952Y0099107D02*
X0203616Y0099107D01*
X0202637Y0100106D02*
X0204952Y0100106D01*
X0204952Y0101104D02*
X0079296Y0101104D01*
X0078298Y0100106D02*
X0187200Y0100106D01*
X0186201Y0099107D02*
X0077299Y0099107D01*
X0076301Y0098109D02*
X0185750Y0098109D01*
X0185452Y0097110D02*
X0075302Y0097110D01*
X0073614Y0098250D02*
X0065614Y0098250D01*
X0063651Y0100106D02*
X0062705Y0100106D01*
X0062560Y0100250D02*
X0063239Y0099572D01*
X0063325Y0099779D01*
X0063796Y0100250D01*
X0062560Y0100250D01*
X0064245Y0105098D02*
X0071227Y0105098D01*
X0074000Y0105098D02*
X0077634Y0105098D01*
X0078632Y0106097D02*
X0064452Y0106097D01*
X0064452Y0107095D02*
X0079631Y0107095D01*
X0080629Y0108094D02*
X0064161Y0108094D01*
X0063718Y0109092D02*
X0186187Y0109092D01*
X0187185Y0110091D02*
X0062720Y0110091D01*
X0058831Y0112088D02*
X0051074Y0112088D01*
X0052909Y0113086D02*
X0056996Y0113086D01*
X0056080Y0114085D02*
X0053825Y0114085D01*
X0054239Y0115083D02*
X0055666Y0115083D01*
X0055452Y0116082D02*
X0054452Y0116082D01*
X0054452Y0117080D02*
X0055452Y0117080D01*
X0055738Y0118079D02*
X0054167Y0118079D01*
X0053733Y0119077D02*
X0056172Y0119077D01*
X0055672Y0125068D02*
X0054233Y0125068D01*
X0054452Y0126067D02*
X0055452Y0126067D01*
X0055452Y0127065D02*
X0054452Y0127065D01*
X0054173Y0128064D02*
X0055732Y0128064D01*
X0056157Y0129062D02*
X0053748Y0129062D01*
X0052750Y0130061D02*
X0057155Y0130061D01*
X0057403Y0132679D02*
X0059057Y0131994D01*
X0060848Y0131994D01*
X0062502Y0132679D01*
X0063767Y0133945D01*
X0064452Y0135599D01*
X0064452Y0137389D01*
X0063767Y0139043D01*
X0062502Y0140309D01*
X0060848Y0140994D01*
X0059057Y0140994D01*
X0057403Y0140309D01*
X0056138Y0139043D01*
X0055452Y0137389D01*
X0055452Y0135599D01*
X0056138Y0133945D01*
X0057403Y0132679D01*
X0057026Y0133056D02*
X0052879Y0133056D01*
X0053813Y0134055D02*
X0056092Y0134055D01*
X0055678Y0135053D02*
X0054227Y0135053D01*
X0054452Y0136052D02*
X0055452Y0136052D01*
X0055452Y0137051D02*
X0054452Y0137051D01*
X0054179Y0138049D02*
X0055726Y0138049D01*
X0056142Y0139048D02*
X0053763Y0139048D01*
X0052764Y0140046D02*
X0057140Y0140046D01*
X0059289Y0142043D02*
X0050966Y0142043D01*
X0047041Y0143042D02*
X0039952Y0143042D01*
X0039952Y0144040D02*
X0046098Y0144040D01*
X0045685Y0145039D02*
X0039952Y0145039D01*
X0039952Y0146037D02*
X0045452Y0146037D01*
X0045452Y0147036D02*
X0039952Y0147036D01*
X0039952Y0148034D02*
X0045720Y0148034D01*
X0046133Y0149033D02*
X0039952Y0149033D01*
X0039952Y0150031D02*
X0047126Y0150031D01*
X0048975Y0152028D02*
X0039952Y0152028D01*
X0039952Y0151030D02*
X0066152Y0151030D01*
X0066152Y0152028D02*
X0060930Y0152028D01*
X0062849Y0153027D02*
X0066152Y0153027D01*
X0066152Y0154025D02*
X0063801Y0154025D01*
X0064214Y0155024D02*
X0066152Y0155024D01*
X0066152Y0156022D02*
X0064452Y0156022D01*
X0064452Y0157021D02*
X0066152Y0157021D01*
X0066152Y0158019D02*
X0064191Y0158019D01*
X0063778Y0159018D02*
X0066152Y0159018D01*
X0066152Y0160016D02*
X0062794Y0160016D01*
X0062834Y0163012D02*
X0066152Y0163012D01*
X0066152Y0164010D02*
X0063794Y0164010D01*
X0064208Y0165009D02*
X0066152Y0165009D01*
X0066152Y0166007D02*
X0064452Y0166007D01*
X0064452Y0167006D02*
X0066152Y0167006D01*
X0066152Y0168004D02*
X0064198Y0168004D01*
X0063784Y0169003D02*
X0066152Y0169003D01*
X0066152Y0170001D02*
X0062809Y0170001D01*
X0059047Y0171998D02*
X0050858Y0171998D01*
X0049047Y0171998D02*
X0048285Y0171998D01*
X0045624Y0174994D02*
X0027114Y0174994D01*
X0027114Y0175992D02*
X0045452Y0175992D01*
X0045452Y0176991D02*
X0027114Y0176991D01*
X0027114Y0177989D02*
X0045701Y0177989D01*
X0046115Y0178988D02*
X0027114Y0178988D01*
X0027114Y0179987D02*
X0047081Y0179987D01*
X0049035Y0180985D02*
X0027114Y0180985D01*
X0027114Y0173995D02*
X0044625Y0173995D01*
X0043627Y0172997D02*
X0027114Y0172997D01*
X0027114Y0171998D02*
X0042628Y0171998D01*
X0041630Y0171000D02*
X0027114Y0171000D01*
X0027114Y0170001D02*
X0040631Y0170001D01*
X0039633Y0169003D02*
X0027114Y0169003D01*
X0027114Y0168004D02*
X0038634Y0168004D01*
X0037636Y0167006D02*
X0027114Y0167006D01*
X0027114Y0166007D02*
X0036637Y0166007D01*
X0035952Y0165009D02*
X0027114Y0165009D01*
X0030138Y0164010D02*
X0035952Y0164010D01*
X0035952Y0163012D02*
X0031289Y0163012D01*
X0032037Y0162013D02*
X0035952Y0162013D01*
X0035952Y0161015D02*
X0032451Y0161015D01*
X0032652Y0160016D02*
X0035952Y0160016D01*
X0035952Y0159018D02*
X0032652Y0159018D01*
X0032470Y0158019D02*
X0035952Y0158019D01*
X0035952Y0157021D02*
X0032056Y0157021D01*
X0031335Y0156022D02*
X0035952Y0156022D01*
X0035952Y0155024D02*
X0030248Y0155024D01*
X0030102Y0154025D02*
X0035952Y0154025D01*
X0035952Y0153027D02*
X0031274Y0153027D01*
X0032031Y0152028D02*
X0035952Y0152028D01*
X0035952Y0151030D02*
X0032445Y0151030D01*
X0032652Y0150031D02*
X0035952Y0150031D01*
X0035952Y0149033D02*
X0032652Y0149033D01*
X0032476Y0148034D02*
X0035952Y0148034D01*
X0035952Y0147036D02*
X0032063Y0147036D01*
X0031349Y0146037D02*
X0035952Y0146037D01*
X0035952Y0145039D02*
X0030284Y0145039D01*
X0030066Y0144040D02*
X0035952Y0144040D01*
X0035952Y0143042D02*
X0031259Y0143042D01*
X0032025Y0142043D02*
X0035952Y0142043D01*
X0035952Y0141045D02*
X0032439Y0141045D01*
X0032652Y0140046D02*
X0035952Y0140046D01*
X0035952Y0139048D02*
X0032652Y0139048D01*
X0032482Y0138049D02*
X0035952Y0138049D01*
X0035952Y0137051D02*
X0032069Y0137051D01*
X0031364Y0136052D02*
X0035952Y0136052D01*
X0035952Y0135053D02*
X0030320Y0135053D01*
X0030030Y0134055D02*
X0035952Y0134055D01*
X0035186Y0133056D02*
X0031244Y0133056D01*
X0032019Y0132058D02*
X0034188Y0132058D01*
X0034452Y0129494D02*
X0037952Y0132994D01*
X0037952Y0164494D01*
X0049952Y0176494D01*
X0054202Y0174994D02*
X0055703Y0174994D01*
X0055452Y0175992D02*
X0054452Y0175992D01*
X0054452Y0176991D02*
X0055452Y0176991D01*
X0055701Y0177989D02*
X0054204Y0177989D01*
X0053790Y0178988D02*
X0056115Y0178988D01*
X0057081Y0179987D02*
X0052824Y0179987D01*
X0050869Y0180985D02*
X0059035Y0180985D01*
X0060869Y0180985D02*
X0066152Y0180985D01*
X0066152Y0179987D02*
X0062824Y0179987D01*
X0060452Y0182982D02*
X0059452Y0182982D01*
X0059452Y0183981D02*
X0060452Y0183981D01*
X0060452Y0184979D02*
X0059452Y0184979D01*
X0059452Y0187975D02*
X0060452Y0187975D01*
X0060452Y0188973D02*
X0059452Y0188973D01*
X0057115Y0192967D02*
X0054364Y0192967D01*
X0054452Y0193966D02*
X0056129Y0193966D01*
X0055715Y0194964D02*
X0054452Y0194964D01*
X0054452Y0195963D02*
X0055452Y0195963D01*
X0050452Y0195963D02*
X0049452Y0195963D01*
X0049452Y0194964D02*
X0050452Y0194964D01*
X0050452Y0193966D02*
X0049452Y0193966D01*
X0049452Y0192967D02*
X0050452Y0192967D01*
X0054452Y0185978D02*
X0055478Y0185978D01*
X0055713Y0184979D02*
X0054196Y0184979D01*
X0053782Y0183981D02*
X0056216Y0183981D01*
X0057131Y0182982D02*
X0052804Y0182982D01*
X0053788Y0173995D02*
X0056117Y0173995D01*
X0057086Y0172997D02*
X0052819Y0172997D01*
X0052809Y0170001D02*
X0057096Y0170001D01*
X0056121Y0169003D02*
X0053784Y0169003D01*
X0054198Y0168004D02*
X0055707Y0168004D01*
X0055452Y0167006D02*
X0054452Y0167006D01*
X0054452Y0166007D02*
X0055452Y0166007D01*
X0055697Y0165009D02*
X0054208Y0165009D01*
X0053794Y0164010D02*
X0056110Y0164010D01*
X0057071Y0163012D02*
X0052834Y0163012D01*
X0047111Y0160016D02*
X0039952Y0160016D01*
X0039952Y0159018D02*
X0046127Y0159018D01*
X0045713Y0158019D02*
X0039952Y0158019D01*
X0039952Y0157021D02*
X0045452Y0157021D01*
X0045452Y0156022D02*
X0039952Y0156022D01*
X0039952Y0155024D02*
X0045691Y0155024D01*
X0046104Y0154025D02*
X0039952Y0154025D01*
X0039952Y0153027D02*
X0047056Y0153027D01*
X0052779Y0150031D02*
X0057165Y0150031D01*
X0056235Y0149033D02*
X0053772Y0149033D01*
X0054185Y0148034D02*
X0055721Y0148034D01*
X0055482Y0147036D02*
X0054452Y0147036D01*
X0059452Y0142043D02*
X0060452Y0142043D01*
X0062764Y0140046D02*
X0066152Y0140046D01*
X0066152Y0139048D02*
X0063763Y0139048D01*
X0064179Y0138049D02*
X0066152Y0138049D01*
X0066152Y0137051D02*
X0064452Y0137051D01*
X0064452Y0136052D02*
X0066152Y0136052D01*
X0066152Y0135053D02*
X0064227Y0135053D01*
X0063813Y0134055D02*
X0066152Y0134055D01*
X0066152Y0133056D02*
X0062879Y0133056D01*
X0061002Y0132058D02*
X0066152Y0132058D01*
X0058903Y0132058D02*
X0051002Y0132058D01*
X0047155Y0130061D02*
X0037848Y0130061D01*
X0036849Y0129062D02*
X0046157Y0129062D01*
X0045732Y0128064D02*
X0035851Y0128064D01*
X0034452Y0129494D02*
X0027452Y0129494D01*
X0031379Y0126067D02*
X0045452Y0126067D01*
X0045452Y0127065D02*
X0032075Y0127065D01*
X0030356Y0125068D02*
X0045672Y0125068D01*
X0040776Y0124070D02*
X0029994Y0124070D01*
X0031229Y0123071D02*
X0039777Y0123071D01*
X0038779Y0122073D02*
X0032013Y0122073D01*
X0032426Y0121074D02*
X0037780Y0121074D01*
X0036782Y0120076D02*
X0032652Y0120076D01*
X0032652Y0119077D02*
X0035783Y0119077D01*
X0034784Y0118079D02*
X0032495Y0118079D01*
X0032081Y0117080D02*
X0033786Y0117080D01*
X0032787Y0116082D02*
X0031394Y0116082D01*
X0032152Y0115083D02*
X0030392Y0115083D01*
X0029897Y0114085D02*
X0032152Y0114085D01*
X0032152Y0113086D02*
X0031214Y0113086D01*
X0031967Y0112088D02*
X0032152Y0112088D01*
X0036752Y0112088D02*
X0048831Y0112088D01*
X0046996Y0113086D02*
X0036752Y0113086D01*
X0037296Y0114085D02*
X0046080Y0114085D01*
X0045666Y0115083D02*
X0038294Y0115083D01*
X0039293Y0116082D02*
X0045452Y0116082D01*
X0045452Y0117080D02*
X0040291Y0117080D01*
X0041290Y0118079D02*
X0045738Y0118079D01*
X0046172Y0119077D02*
X0042288Y0119077D01*
X0052720Y0110091D02*
X0057185Y0110091D01*
X0056187Y0109092D02*
X0053718Y0109092D01*
X0054161Y0108094D02*
X0055744Y0108094D01*
X0055452Y0107095D02*
X0054452Y0107095D01*
X0054452Y0106097D02*
X0055452Y0106097D01*
X0055660Y0105098D02*
X0054245Y0105098D01*
X0064251Y0095113D02*
X0185654Y0095113D01*
X0185452Y0096112D02*
X0067294Y0096112D01*
X0063838Y0094115D02*
X0186067Y0094115D01*
X0186967Y0093116D02*
X0062938Y0093116D01*
X0061146Y0092118D02*
X0188759Y0092118D01*
X0187215Y0090120D02*
X0062690Y0090120D01*
X0063689Y0089122D02*
X0186216Y0089122D01*
X0185757Y0088123D02*
X0064148Y0088123D01*
X0064452Y0087125D02*
X0185452Y0087125D01*
X0185452Y0086126D02*
X0064452Y0086126D01*
X0064257Y0085128D02*
X0185648Y0085128D01*
X0186061Y0084129D02*
X0063844Y0084129D01*
X0062953Y0083131D02*
X0186952Y0083131D01*
X0188723Y0082132D02*
X0061181Y0082132D01*
X0062675Y0080135D02*
X0181274Y0080135D01*
X0182631Y0080135D02*
X0187230Y0080135D01*
X0186231Y0079137D02*
X0184128Y0079137D01*
X0181952Y0077494D02*
X0182952Y0076494D01*
X0189952Y0076494D01*
X0186055Y0074144D02*
X0063850Y0074144D01*
X0064263Y0075143D02*
X0180573Y0075143D01*
X0179590Y0076141D02*
X0064452Y0076141D01*
X0064452Y0077140D02*
X0179252Y0077140D01*
X0179297Y0078138D02*
X0064142Y0078138D01*
X0063674Y0079137D02*
X0179777Y0079137D01*
X0186246Y0069152D02*
X0130526Y0069152D01*
X0129930Y0068153D02*
X0185769Y0068153D01*
X0193644Y0059167D02*
X0194451Y0059167D01*
X0210952Y0039494D02*
X0217452Y0039494D01*
X0220964Y0009014D02*
X0220964Y0194719D01*
X0217452Y0195494D02*
X0212452Y0195494D01*
X0212754Y0192967D02*
X0212871Y0192967D01*
X0213624Y0191969D02*
X0211755Y0191969D01*
X0210757Y0190970D02*
X0214786Y0190970D01*
X0214674Y0189972D02*
X0209758Y0189972D01*
X0220964Y0194719D02*
X0220980Y0194851D01*
X0220992Y0194984D01*
X0221000Y0195117D01*
X0221004Y0195250D01*
X0221005Y0195384D01*
X0221001Y0195517D01*
X0220993Y0195650D01*
X0220981Y0195783D01*
X0220966Y0195915D01*
X0220946Y0196047D01*
X0220923Y0196178D01*
X0220896Y0196309D01*
X0220865Y0196439D01*
X0220830Y0196567D01*
X0220791Y0196695D01*
X0220748Y0196821D01*
X0220702Y0196946D01*
X0220652Y0197070D01*
X0220598Y0197192D01*
X0220541Y0197312D01*
X0220481Y0197431D01*
X0220416Y0197548D01*
X0220349Y0197663D01*
X0220278Y0197776D01*
X0220203Y0197886D01*
X0220126Y0197995D01*
X0220045Y0198101D01*
X0219961Y0198205D01*
X0219874Y0198306D01*
X0219784Y0198404D01*
X0219692Y0198500D01*
X0219596Y0198593D01*
X0219498Y0198683D01*
X0219397Y0198770D01*
X0219293Y0198854D01*
X0219188Y0198935D01*
X0219079Y0199013D01*
X0218969Y0199088D01*
X0218856Y0199159D01*
X0218742Y0199227D01*
X0218625Y0199292D01*
X0218506Y0199353D01*
X0218386Y0199410D01*
X0218264Y0199464D01*
X0218141Y0199515D01*
X0218016Y0199561D01*
X0217889Y0199604D01*
X0217762Y0199643D01*
X0217633Y0199678D01*
X0217504Y0199710D01*
X0217373Y0199738D01*
X0217242Y0199761D01*
X0217110Y0199781D01*
X0030413Y0199781D01*
X0030264Y0199796D01*
X0030115Y0199806D01*
X0029965Y0199812D01*
X0029816Y0199815D01*
X0029666Y0199814D01*
X0029517Y0199808D01*
X0029367Y0199799D01*
X0029218Y0199786D01*
X0029070Y0199769D01*
X0028922Y0199748D01*
X0028774Y0199723D01*
X0028627Y0199694D01*
X0028481Y0199662D01*
X0028336Y0199626D01*
X0028192Y0199586D01*
X0028049Y0199542D01*
X0027907Y0199494D01*
X0027766Y0199443D01*
X0027627Y0199388D01*
X0027490Y0199329D01*
X0027353Y0199267D01*
X0027219Y0199202D01*
X0027086Y0199132D01*
X0026956Y0199060D01*
X0026827Y0198984D01*
X0026700Y0198904D01*
X0026575Y0198822D01*
X0026453Y0198736D01*
X0026333Y0198647D01*
X0026215Y0198555D01*
X0026099Y0198459D01*
X0025986Y0198361D01*
X0025876Y0198260D01*
X0025769Y0198156D01*
X0025664Y0198049D01*
X0025562Y0197940D01*
X0025463Y0197827D01*
X0025367Y0197713D01*
X0025274Y0197596D01*
X0025184Y0197476D01*
X0025097Y0197354D01*
X0025013Y0197230D01*
X0024933Y0197104D01*
X0024856Y0196976D01*
X0024783Y0196845D01*
X0024712Y0196713D01*
X0024646Y0196579D01*
X0024583Y0196444D01*
X0024523Y0196306D01*
X0024467Y0196168D01*
X0024415Y0196027D01*
X0024366Y0195886D01*
X0024321Y0195743D01*
X0024280Y0195599D01*
X0024243Y0195454D01*
X0024209Y0195309D01*
X0024180Y0195162D01*
X0024154Y0195015D01*
X0024132Y0194867D01*
X0024114Y0194718D01*
X0062740Y0150031D02*
X0066152Y0150031D01*
X0066152Y0149033D02*
X0063670Y0149033D01*
X0064184Y0148034D02*
X0066152Y0148034D01*
X0066152Y0147036D02*
X0064423Y0147036D01*
X0070752Y0148034D02*
X0071080Y0148034D01*
X0027952Y0108994D02*
X0027952Y0099994D01*
X0027114Y0099994D01*
X0027114Y0108994D01*
X0027952Y0108994D01*
X0027952Y0108094D02*
X0027114Y0108094D01*
X0027114Y0107095D02*
X0027952Y0107095D01*
X0027952Y0106097D02*
X0027114Y0106097D01*
X0027114Y0105098D02*
X0027952Y0105098D01*
X0027952Y0104100D02*
X0027114Y0104100D01*
X0027114Y0103101D02*
X0027952Y0103101D01*
X0027952Y0102103D02*
X0027114Y0102103D01*
X0027114Y0101104D02*
X0027952Y0101104D01*
X0027952Y0100106D02*
X0027114Y0100106D01*
X0030840Y0103460D02*
X0031419Y0102882D01*
X0031900Y0102219D01*
X0032152Y0101724D01*
X0032152Y0107264D01*
X0031900Y0106769D01*
X0031419Y0106107D01*
X0030840Y0105528D01*
X0030178Y0105047D01*
X0029449Y0104675D01*
X0028892Y0104494D01*
X0029449Y0104313D01*
X0030178Y0103942D01*
X0030840Y0103460D01*
X0031199Y0103101D02*
X0032152Y0103101D01*
X0032152Y0102103D02*
X0031959Y0102103D01*
X0032152Y0104100D02*
X0029868Y0104100D01*
X0030249Y0105098D02*
X0032152Y0105098D01*
X0032152Y0106097D02*
X0031409Y0106097D01*
X0032066Y0107095D02*
X0032152Y0107095D01*
X0032152Y0097264D02*
X0032152Y0093947D01*
X0031253Y0093047D01*
X0030398Y0093902D01*
X0028935Y0094508D01*
X0029449Y0094675D01*
X0030178Y0095047D01*
X0030840Y0095528D01*
X0031419Y0096107D01*
X0031900Y0096769D01*
X0032152Y0097264D01*
X0032152Y0097110D02*
X0032074Y0097110D01*
X0032152Y0096112D02*
X0031422Y0096112D01*
X0032152Y0095113D02*
X0030269Y0095113D01*
X0029886Y0094115D02*
X0032152Y0094115D01*
X0031322Y0093116D02*
X0031184Y0093116D01*
X0034832Y0090120D02*
X0035952Y0090120D01*
X0035952Y0089122D02*
X0033833Y0089122D01*
X0032834Y0088123D02*
X0035952Y0088123D01*
X0035952Y0087125D02*
X0032100Y0087125D01*
X0031439Y0086126D02*
X0035952Y0086126D01*
X0035952Y0085128D02*
X0030440Y0085128D01*
X0027114Y0084129D02*
X0035952Y0084129D01*
X0035952Y0083131D02*
X0027114Y0083131D01*
X0035830Y0091119D02*
X0035952Y0091119D01*
X0039436Y0071149D02*
X0125508Y0071149D01*
X0125252Y0070150D02*
X0062660Y0070150D01*
X0063659Y0069152D02*
X0125379Y0069152D01*
X0126287Y0072147D02*
X0061217Y0072147D01*
X0062968Y0073146D02*
X0128276Y0073146D01*
X0082292Y0104100D02*
X0186073Y0104100D01*
X0186981Y0103101D02*
X0081293Y0103101D01*
X0080295Y0102103D02*
X0188795Y0102103D01*
X0192705Y0100106D02*
X0197267Y0100106D01*
X0196289Y0099107D02*
X0193703Y0099107D01*
X0194154Y0098109D02*
X0195745Y0098109D01*
X0195494Y0097110D02*
X0194452Y0097110D01*
X0201110Y0102103D02*
X0204952Y0102103D01*
X0204952Y0103101D02*
X0202923Y0103101D01*
X0203831Y0104100D02*
X0204952Y0104100D01*
X0204952Y0105098D02*
X0204245Y0105098D01*
X0204452Y0106097D02*
X0204952Y0106097D01*
X0204952Y0107095D02*
X0204452Y0107095D01*
X0204161Y0108094D02*
X0204952Y0108094D01*
X0204526Y0109092D02*
X0203718Y0109092D01*
X0203527Y0110091D02*
X0202720Y0110091D01*
X0197185Y0110091D02*
X0192720Y0110091D01*
X0193718Y0109092D02*
X0196187Y0109092D01*
X0204235Y0095113D02*
X0204952Y0095113D01*
X0204952Y0094115D02*
X0203786Y0094115D01*
X0202938Y0093116D02*
X0204952Y0093116D01*
X0220964Y0009014D02*
X0215256Y0003250D01*
X0132843Y0006250D02*
X0132062Y0006250D01*
X0132452Y0006640D01*
X0132843Y0006250D01*
X0075637Y0103101D02*
X0075314Y0103101D01*
X0074977Y0104100D02*
X0076635Y0104100D01*
D11*
X0059952Y0106494D03*
X0049952Y0106494D03*
X0049952Y0096494D03*
X0059952Y0096494D03*
X0059952Y0086494D03*
X0049952Y0086494D03*
X0049952Y0076494D03*
X0049952Y0066494D03*
X0059952Y0066494D03*
X0059952Y0076494D03*
X0059952Y0056494D03*
X0049952Y0056494D03*
X0049952Y0046494D03*
X0059952Y0046494D03*
X0059952Y0036494D03*
X0049952Y0036494D03*
X0049952Y0026494D03*
X0059952Y0026494D03*
X0059952Y0016494D03*
X0049952Y0016494D03*
X0049952Y0006494D03*
X0059952Y0006494D03*
X0059952Y0116494D03*
X0049952Y0116494D03*
X0049952Y0126494D03*
X0059952Y0126494D03*
X0059952Y0136494D03*
X0049952Y0136494D03*
X0049952Y0146494D03*
X0059952Y0146494D03*
X0059952Y0156494D03*
X0049952Y0156494D03*
X0049952Y0166494D03*
X0059952Y0166494D03*
X0059952Y0176494D03*
X0049952Y0176494D03*
X0049952Y0186494D03*
X0059952Y0186494D03*
X0059952Y0196494D03*
X0189952Y0186494D03*
X0199952Y0186494D03*
X0199952Y0176494D03*
X0189952Y0176494D03*
X0189952Y0166494D03*
X0199952Y0166494D03*
X0199952Y0156494D03*
X0189952Y0156494D03*
X0189952Y0146494D03*
X0189952Y0136494D03*
X0199952Y0136494D03*
X0199952Y0146494D03*
X0199952Y0126494D03*
X0189952Y0126494D03*
X0189952Y0116494D03*
X0199952Y0116494D03*
X0199952Y0106494D03*
X0189952Y0106494D03*
X0189952Y0096494D03*
X0199952Y0096494D03*
X0199952Y0086494D03*
X0189952Y0086494D03*
X0189952Y0076494D03*
X0189952Y0066494D03*
X0199952Y0066494D03*
X0199952Y0076494D03*
X0199952Y0056494D03*
X0189952Y0056494D03*
X0189952Y0046494D03*
X0199952Y0046494D03*
X0199952Y0036494D03*
X0189952Y0036494D03*
X0189952Y0026494D03*
X0199952Y0026494D03*
X0199952Y0016494D03*
X0189952Y0016494D03*
X0189952Y0006494D03*
X0199952Y0006494D03*
X0199952Y0196494D03*
D12*
X0189952Y0196494D03*
X0049952Y0196494D03*
D13*
X0027452Y0159494D03*
X0027452Y0149494D03*
X0027452Y0139494D03*
X0027452Y0129494D03*
X0027452Y0119494D03*
X0027452Y0109494D03*
X0027452Y0099494D03*
X0027452Y0089494D03*
X0027452Y0069494D03*
X0027452Y0059494D03*
X0027452Y0049494D03*
X0027452Y0039494D03*
X0027452Y0029494D03*
X0027452Y0019494D03*
X0217452Y0019494D03*
X0217452Y0029494D03*
X0217452Y0039494D03*
X0217452Y0049494D03*
X0217452Y0059494D03*
X0217452Y0069494D03*
X0217452Y0079494D03*
X0217452Y0089494D03*
X0217452Y0105494D03*
X0217452Y0115494D03*
X0217452Y0125494D03*
X0217452Y0135494D03*
X0217452Y0145494D03*
X0217452Y0155494D03*
X0217452Y0165494D03*
X0217452Y0175494D03*
X0217452Y0185494D03*
X0217452Y0195494D03*
D14*
X0137452Y0018994D03*
X0127452Y0018994D03*
X0117452Y0018994D03*
X0117452Y0008994D03*
X0127452Y0008994D03*
X0137452Y0008994D03*
D15*
X0164452Y0033994D03*
X0182952Y0050994D03*
X0181952Y0077494D03*
X0137952Y0061494D03*
X0127952Y0069994D03*
X0124452Y0055994D03*
X0074614Y0046750D03*
X0069952Y0050994D03*
X0065614Y0098250D03*
X0072614Y0102750D03*
X0077114Y0125250D03*
X0072614Y0145750D03*
X0167452Y0176494D03*
X0178452Y0183494D03*
X0170952Y0151494D03*
D16*
X0068452Y0123494D02*
X0068452Y0187994D01*
X0059952Y0196494D01*
X0068452Y0123494D02*
X0066952Y0121994D01*
X0041952Y0121994D01*
X0034452Y0114494D01*
X0034452Y0092994D01*
X0030952Y0089494D01*
X0027452Y0089494D01*
M02*
