%
M48
M72
T01C0.01200
T02C0.04000
%
T01
X69952Y50994
X74614Y46750
X124452Y55994
X137952Y61494
X127952Y69994
X164452Y33994
X182952Y50994
X181952Y77494
X170952Y151494
X167452Y176494
X178452Y183494
X77114Y125250
X72614Y145750
X72614Y102750
X65614Y98250
T02
X27452Y19494
X27452Y29494
X27452Y39494
X27452Y49494
X27452Y59494
X27452Y69494
X49952Y66494
X49952Y76494
X59952Y76494
X59952Y66494
X59952Y56494
X49952Y56494
X49952Y46494
X59952Y46494
X59952Y36494
X49952Y36494
X49952Y26494
X59952Y26494
X59952Y16494
X49952Y16494
X49952Y6494
X59952Y6494
X117452Y8994
X127452Y8994
X137452Y8994
X137452Y18994
X127452Y18994
X117452Y18994
X189952Y16494
X189952Y6494
X199952Y6494
X199952Y16494
X199952Y26494
X189952Y26494
X189952Y36494
X199952Y36494
X199952Y46494
X189952Y46494
X189952Y56494
X199952Y56494
X199952Y66494
X189952Y66494
X189952Y76494
X199952Y76494
X199952Y86494
X189952Y86494
X189952Y96494
X199952Y96494
X199952Y106494
X189952Y106494
X189952Y116494
X199952Y116494
X199952Y126494
X189952Y126494
X189952Y136494
X189952Y146494
X199952Y146494
X199952Y136494
X217452Y135494
X217452Y125494
X217452Y115494
X217452Y105494
X217452Y89494
X217452Y79494
X217452Y69494
X217452Y59494
X217452Y49494
X217452Y39494
X217452Y29494
X217452Y19494
X217452Y145494
X217452Y155494
X217452Y165494
X217452Y175494
X217452Y185494
X217452Y195494
X199952Y196494
X189952Y196494
X189952Y186494
X199952Y186494
X199952Y176494
X189952Y176494
X189952Y166494
X199952Y166494
X199952Y156494
X189952Y156494
X59952Y156494
X49952Y156494
X49952Y146494
X49952Y136494
X59952Y136494
X59952Y146494
X59952Y126494
X49952Y126494
X49952Y116494
X59952Y116494
X59952Y106494
X49952Y106494
X49952Y96494
X59952Y96494
X59952Y86494
X49952Y86494
X27452Y89494
X27452Y99494
X27452Y109494
X27452Y119494
X27452Y129494
X27452Y139494
X27452Y149494
X27452Y159494
X49952Y166494
X59952Y166494
X59952Y176494
X49952Y176494
X49952Y186494
X59952Y186494
X59952Y196494
X49952Y196494
M30
